%TF.GenerationSoftware,KiCad,Pcbnew,7.0.6*%
%TF.CreationDate,2023-09-04T14:52:52+12:00*%
%TF.ProjectId,GBA_lipo,4742415f-6c69-4706-9f2e-6b696361645f,rev?*%
%TF.SameCoordinates,Original*%
%TF.FileFunction,Legend,Top*%
%TF.FilePolarity,Positive*%
%FSLAX46Y46*%
G04 Gerber Fmt 4.6, Leading zero omitted, Abs format (unit mm)*
G04 Created by KiCad (PCBNEW 7.0.6) date 2023-09-04 14:52:52*
%MOMM*%
%LPD*%
G01*
G04 APERTURE LIST*
G04 Aperture macros list*
%AMRoundRect*
0 Rectangle with rounded corners*
0 $1 Rounding radius*
0 $2 $3 $4 $5 $6 $7 $8 $9 X,Y pos of 4 corners*
0 Add a 4 corners polygon primitive as box body*
4,1,4,$2,$3,$4,$5,$6,$7,$8,$9,$2,$3,0*
0 Add four circle primitives for the rounded corners*
1,1,$1+$1,$2,$3*
1,1,$1+$1,$4,$5*
1,1,$1+$1,$6,$7*
1,1,$1+$1,$8,$9*
0 Add four rect primitives between the rounded corners*
20,1,$1+$1,$2,$3,$4,$5,0*
20,1,$1+$1,$4,$5,$6,$7,0*
20,1,$1+$1,$6,$7,$8,$9,0*
20,1,$1+$1,$8,$9,$2,$3,0*%
G04 Aperture macros list end*
%ADD10C,0.125000*%
%ADD11C,0.150000*%
%ADD12C,0.120000*%
%ADD13R,1.000000X1.000000*%
%ADD14R,1.500000X1.000000*%
%ADD15R,1.000000X1.500000*%
%ADD16RoundRect,0.200000X0.275000X-0.200000X0.275000X0.200000X-0.275000X0.200000X-0.275000X-0.200000X0*%
%ADD17RoundRect,0.250001X-0.462499X-0.624999X0.462499X-0.624999X0.462499X0.624999X-0.462499X0.624999X0*%
%ADD18O,1.000000X1.000000*%
%ADD19C,0.650000*%
%ADD20R,0.600000X1.450000*%
%ADD21R,0.300000X1.450000*%
%ADD22O,1.000000X1.600000*%
%ADD23O,1.000000X2.100000*%
%ADD24RoundRect,0.200000X0.200000X0.275000X-0.200000X0.275000X-0.200000X-0.275000X0.200000X-0.275000X0*%
%ADD25RoundRect,0.200000X-0.275000X0.200000X-0.275000X-0.200000X0.275000X-0.200000X0.275000X0.200000X0*%
%ADD26RoundRect,0.225000X-0.225000X-0.250000X0.225000X-0.250000X0.225000X0.250000X-0.225000X0.250000X0*%
%ADD27RoundRect,0.218750X-0.256250X0.218750X-0.256250X-0.218750X0.256250X-0.218750X0.256250X0.218750X0*%
%ADD28R,1.500000X2.000000*%
%ADD29R,3.800000X2.000000*%
%ADD30R,0.900000X1.200000*%
%ADD31RoundRect,0.200000X-0.200000X-0.275000X0.200000X-0.275000X0.200000X0.275000X-0.200000X0.275000X0*%
%ADD32R,1.200000X1.200000*%
%ADD33R,1.600000X1.500000*%
%ADD34R,0.650000X1.560000*%
%ADD35RoundRect,0.150000X-0.150000X0.587500X-0.150000X-0.587500X0.150000X-0.587500X0.150000X0.587500X0*%
%ADD36RoundRect,0.225000X0.225000X0.250000X-0.225000X0.250000X-0.225000X-0.250000X0.225000X-0.250000X0*%
%ADD37RoundRect,0.150000X0.825000X0.150000X-0.825000X0.150000X-0.825000X-0.150000X0.825000X-0.150000X0*%
%ADD38R,2.290000X3.000000*%
%ADD39RoundRect,0.225000X0.250000X-0.225000X0.250000X0.225000X-0.250000X0.225000X-0.250000X-0.225000X0*%
%ADD40RoundRect,0.150000X0.150000X-0.587500X0.150000X0.587500X-0.150000X0.587500X-0.150000X-0.587500X0*%
%ADD41RoundRect,0.225000X-0.250000X0.225000X-0.250000X-0.225000X0.250000X-0.225000X0.250000X0.225000X0*%
%ADD42RoundRect,0.150000X-0.150000X0.825000X-0.150000X-0.825000X0.150000X-0.825000X0.150000X0.825000X0*%
G04 APERTURE END LIST*
D10*
X110022712Y-138073500D02*
X110165569Y-138121119D01*
X110165569Y-138121119D02*
X110403664Y-138121119D01*
X110403664Y-138121119D02*
X110498902Y-138073500D01*
X110498902Y-138073500D02*
X110546521Y-138025880D01*
X110546521Y-138025880D02*
X110594140Y-137930642D01*
X110594140Y-137930642D02*
X110594140Y-137835404D01*
X110594140Y-137835404D02*
X110546521Y-137740166D01*
X110546521Y-137740166D02*
X110498902Y-137692547D01*
X110498902Y-137692547D02*
X110403664Y-137644928D01*
X110403664Y-137644928D02*
X110213188Y-137597309D01*
X110213188Y-137597309D02*
X110117950Y-137549690D01*
X110117950Y-137549690D02*
X110070331Y-137502071D01*
X110070331Y-137502071D02*
X110022712Y-137406833D01*
X110022712Y-137406833D02*
X110022712Y-137311595D01*
X110022712Y-137311595D02*
X110070331Y-137216357D01*
X110070331Y-137216357D02*
X110117950Y-137168738D01*
X110117950Y-137168738D02*
X110213188Y-137121119D01*
X110213188Y-137121119D02*
X110451283Y-137121119D01*
X110451283Y-137121119D02*
X110594140Y-137168738D01*
X111022712Y-137597309D02*
X111356045Y-137597309D01*
X111498902Y-138121119D02*
X111022712Y-138121119D01*
X111022712Y-138121119D02*
X111022712Y-137121119D01*
X111022712Y-137121119D02*
X111498902Y-137121119D01*
X111927474Y-138121119D02*
X111927474Y-137121119D01*
X111927474Y-137121119D02*
X112308426Y-137121119D01*
X112308426Y-137121119D02*
X112403664Y-137168738D01*
X112403664Y-137168738D02*
X112451283Y-137216357D01*
X112451283Y-137216357D02*
X112498902Y-137311595D01*
X112498902Y-137311595D02*
X112498902Y-137454452D01*
X112498902Y-137454452D02*
X112451283Y-137549690D01*
X112451283Y-137549690D02*
X112403664Y-137597309D01*
X112403664Y-137597309D02*
X112308426Y-137644928D01*
X112308426Y-137644928D02*
X111927474Y-137644928D01*
X112784617Y-137121119D02*
X113356045Y-137121119D01*
X113070331Y-138121119D02*
X113070331Y-137121119D01*
X114403665Y-137216357D02*
X114451284Y-137168738D01*
X114451284Y-137168738D02*
X114546522Y-137121119D01*
X114546522Y-137121119D02*
X114784617Y-137121119D01*
X114784617Y-137121119D02*
X114879855Y-137168738D01*
X114879855Y-137168738D02*
X114927474Y-137216357D01*
X114927474Y-137216357D02*
X114975093Y-137311595D01*
X114975093Y-137311595D02*
X114975093Y-137406833D01*
X114975093Y-137406833D02*
X114927474Y-137549690D01*
X114927474Y-137549690D02*
X114356046Y-138121119D01*
X114356046Y-138121119D02*
X114975093Y-138121119D01*
X115594141Y-137121119D02*
X115689379Y-137121119D01*
X115689379Y-137121119D02*
X115784617Y-137168738D01*
X115784617Y-137168738D02*
X115832236Y-137216357D01*
X115832236Y-137216357D02*
X115879855Y-137311595D01*
X115879855Y-137311595D02*
X115927474Y-137502071D01*
X115927474Y-137502071D02*
X115927474Y-137740166D01*
X115927474Y-137740166D02*
X115879855Y-137930642D01*
X115879855Y-137930642D02*
X115832236Y-138025880D01*
X115832236Y-138025880D02*
X115784617Y-138073500D01*
X115784617Y-138073500D02*
X115689379Y-138121119D01*
X115689379Y-138121119D02*
X115594141Y-138121119D01*
X115594141Y-138121119D02*
X115498903Y-138073500D01*
X115498903Y-138073500D02*
X115451284Y-138025880D01*
X115451284Y-138025880D02*
X115403665Y-137930642D01*
X115403665Y-137930642D02*
X115356046Y-137740166D01*
X115356046Y-137740166D02*
X115356046Y-137502071D01*
X115356046Y-137502071D02*
X115403665Y-137311595D01*
X115403665Y-137311595D02*
X115451284Y-137216357D01*
X115451284Y-137216357D02*
X115498903Y-137168738D01*
X115498903Y-137168738D02*
X115594141Y-137121119D01*
X116308427Y-137216357D02*
X116356046Y-137168738D01*
X116356046Y-137168738D02*
X116451284Y-137121119D01*
X116451284Y-137121119D02*
X116689379Y-137121119D01*
X116689379Y-137121119D02*
X116784617Y-137168738D01*
X116784617Y-137168738D02*
X116832236Y-137216357D01*
X116832236Y-137216357D02*
X116879855Y-137311595D01*
X116879855Y-137311595D02*
X116879855Y-137406833D01*
X116879855Y-137406833D02*
X116832236Y-137549690D01*
X116832236Y-137549690D02*
X116260808Y-138121119D01*
X116260808Y-138121119D02*
X116879855Y-138121119D01*
X117213189Y-137121119D02*
X117832236Y-137121119D01*
X117832236Y-137121119D02*
X117498903Y-137502071D01*
X117498903Y-137502071D02*
X117641760Y-137502071D01*
X117641760Y-137502071D02*
X117736998Y-137549690D01*
X117736998Y-137549690D02*
X117784617Y-137597309D01*
X117784617Y-137597309D02*
X117832236Y-137692547D01*
X117832236Y-137692547D02*
X117832236Y-137930642D01*
X117832236Y-137930642D02*
X117784617Y-138025880D01*
X117784617Y-138025880D02*
X117736998Y-138073500D01*
X117736998Y-138073500D02*
X117641760Y-138121119D01*
X117641760Y-138121119D02*
X117356046Y-138121119D01*
X117356046Y-138121119D02*
X117260808Y-138073500D01*
X117260808Y-138073500D02*
X117213189Y-138025880D01*
D11*
X105316033Y-132583333D02*
X105316033Y-132183333D01*
X106016033Y-132383333D02*
X105316033Y-132383333D01*
X106016033Y-131950000D02*
X105316033Y-131950000D01*
X105316033Y-131950000D02*
X105316033Y-131683333D01*
X105316033Y-131683333D02*
X105349366Y-131616667D01*
X105349366Y-131616667D02*
X105382700Y-131583333D01*
X105382700Y-131583333D02*
X105449366Y-131550000D01*
X105449366Y-131550000D02*
X105549366Y-131550000D01*
X105549366Y-131550000D02*
X105616033Y-131583333D01*
X105616033Y-131583333D02*
X105649366Y-131616667D01*
X105649366Y-131616667D02*
X105682700Y-131683333D01*
X105682700Y-131683333D02*
X105682700Y-131950000D01*
X105316033Y-130916667D02*
X105316033Y-131250000D01*
X105316033Y-131250000D02*
X105649366Y-131283333D01*
X105649366Y-131283333D02*
X105616033Y-131250000D01*
X105616033Y-131250000D02*
X105582700Y-131183333D01*
X105582700Y-131183333D02*
X105582700Y-131016667D01*
X105582700Y-131016667D02*
X105616033Y-130950000D01*
X105616033Y-130950000D02*
X105649366Y-130916667D01*
X105649366Y-130916667D02*
X105716033Y-130883333D01*
X105716033Y-130883333D02*
X105882700Y-130883333D01*
X105882700Y-130883333D02*
X105949366Y-130916667D01*
X105949366Y-130916667D02*
X105982700Y-130950000D01*
X105982700Y-130950000D02*
X106016033Y-131016667D01*
X106016033Y-131016667D02*
X106016033Y-131183333D01*
X106016033Y-131183333D02*
X105982700Y-131250000D01*
X105982700Y-131250000D02*
X105949366Y-131283333D01*
X108316033Y-132933333D02*
X109016033Y-132700000D01*
X109016033Y-132700000D02*
X108316033Y-132466666D01*
X109082700Y-132400000D02*
X109082700Y-131866666D01*
X108982700Y-131733333D02*
X109016033Y-131633333D01*
X109016033Y-131633333D02*
X109016033Y-131466667D01*
X109016033Y-131466667D02*
X108982700Y-131400000D01*
X108982700Y-131400000D02*
X108949366Y-131366667D01*
X108949366Y-131366667D02*
X108882700Y-131333333D01*
X108882700Y-131333333D02*
X108816033Y-131333333D01*
X108816033Y-131333333D02*
X108749366Y-131366667D01*
X108749366Y-131366667D02*
X108716033Y-131400000D01*
X108716033Y-131400000D02*
X108682700Y-131466667D01*
X108682700Y-131466667D02*
X108649366Y-131600000D01*
X108649366Y-131600000D02*
X108616033Y-131666667D01*
X108616033Y-131666667D02*
X108582700Y-131700000D01*
X108582700Y-131700000D02*
X108516033Y-131733333D01*
X108516033Y-131733333D02*
X108449366Y-131733333D01*
X108449366Y-131733333D02*
X108382700Y-131700000D01*
X108382700Y-131700000D02*
X108349366Y-131666667D01*
X108349366Y-131666667D02*
X108316033Y-131600000D01*
X108316033Y-131600000D02*
X108316033Y-131433333D01*
X108316033Y-131433333D02*
X108349366Y-131333333D01*
X108316033Y-131100000D02*
X109016033Y-130933333D01*
X109016033Y-130933333D02*
X108516033Y-130800000D01*
X108516033Y-130800000D02*
X109016033Y-130666666D01*
X109016033Y-130666666D02*
X108316033Y-130500000D01*
X88916033Y-128183333D02*
X89416033Y-128183333D01*
X89416033Y-128183333D02*
X89516033Y-128216666D01*
X89516033Y-128216666D02*
X89582700Y-128283333D01*
X89582700Y-128283333D02*
X89616033Y-128383333D01*
X89616033Y-128383333D02*
X89616033Y-128450000D01*
X89616033Y-127850000D02*
X88916033Y-127850000D01*
X88916033Y-127850000D02*
X88916033Y-127583333D01*
X88916033Y-127583333D02*
X88949366Y-127516667D01*
X88949366Y-127516667D02*
X88982700Y-127483333D01*
X88982700Y-127483333D02*
X89049366Y-127450000D01*
X89049366Y-127450000D02*
X89149366Y-127450000D01*
X89149366Y-127450000D02*
X89216033Y-127483333D01*
X89216033Y-127483333D02*
X89249366Y-127516667D01*
X89249366Y-127516667D02*
X89282700Y-127583333D01*
X89282700Y-127583333D02*
X89282700Y-127850000D01*
X88916033Y-126816667D02*
X88916033Y-127150000D01*
X88916033Y-127150000D02*
X89249366Y-127183333D01*
X89249366Y-127183333D02*
X89216033Y-127150000D01*
X89216033Y-127150000D02*
X89182700Y-127083333D01*
X89182700Y-127083333D02*
X89182700Y-126916667D01*
X89182700Y-126916667D02*
X89216033Y-126850000D01*
X89216033Y-126850000D02*
X89249366Y-126816667D01*
X89249366Y-126816667D02*
X89316033Y-126783333D01*
X89316033Y-126783333D02*
X89482700Y-126783333D01*
X89482700Y-126783333D02*
X89549366Y-126816667D01*
X89549366Y-126816667D02*
X89582700Y-126850000D01*
X89582700Y-126850000D02*
X89616033Y-126916667D01*
X89616033Y-126916667D02*
X89616033Y-127083333D01*
X89616033Y-127083333D02*
X89582700Y-127150000D01*
X89582700Y-127150000D02*
X89549366Y-127183333D01*
X99016033Y-129183333D02*
X99516033Y-129183333D01*
X99516033Y-129183333D02*
X99616033Y-129216666D01*
X99616033Y-129216666D02*
X99682700Y-129283333D01*
X99682700Y-129283333D02*
X99716033Y-129383333D01*
X99716033Y-129383333D02*
X99716033Y-129450000D01*
X99716033Y-128850000D02*
X99016033Y-128850000D01*
X99016033Y-128850000D02*
X99016033Y-128583333D01*
X99016033Y-128583333D02*
X99049366Y-128516667D01*
X99049366Y-128516667D02*
X99082700Y-128483333D01*
X99082700Y-128483333D02*
X99149366Y-128450000D01*
X99149366Y-128450000D02*
X99249366Y-128450000D01*
X99249366Y-128450000D02*
X99316033Y-128483333D01*
X99316033Y-128483333D02*
X99349366Y-128516667D01*
X99349366Y-128516667D02*
X99382700Y-128583333D01*
X99382700Y-128583333D02*
X99382700Y-128850000D01*
X99249366Y-127850000D02*
X99716033Y-127850000D01*
X98982700Y-128016667D02*
X99482700Y-128183333D01*
X99482700Y-128183333D02*
X99482700Y-127750000D01*
X102616033Y-129183333D02*
X103116033Y-129183333D01*
X103116033Y-129183333D02*
X103216033Y-129216666D01*
X103216033Y-129216666D02*
X103282700Y-129283333D01*
X103282700Y-129283333D02*
X103316033Y-129383333D01*
X103316033Y-129383333D02*
X103316033Y-129450000D01*
X103316033Y-128850000D02*
X102616033Y-128850000D01*
X102616033Y-128850000D02*
X102616033Y-128583333D01*
X102616033Y-128583333D02*
X102649366Y-128516667D01*
X102649366Y-128516667D02*
X102682700Y-128483333D01*
X102682700Y-128483333D02*
X102749366Y-128450000D01*
X102749366Y-128450000D02*
X102849366Y-128450000D01*
X102849366Y-128450000D02*
X102916033Y-128483333D01*
X102916033Y-128483333D02*
X102949366Y-128516667D01*
X102949366Y-128516667D02*
X102982700Y-128583333D01*
X102982700Y-128583333D02*
X102982700Y-128850000D01*
X102616033Y-128216667D02*
X102616033Y-127783333D01*
X102616033Y-127783333D02*
X102882700Y-128016667D01*
X102882700Y-128016667D02*
X102882700Y-127916667D01*
X102882700Y-127916667D02*
X102916033Y-127850000D01*
X102916033Y-127850000D02*
X102949366Y-127816667D01*
X102949366Y-127816667D02*
X103016033Y-127783333D01*
X103016033Y-127783333D02*
X103182700Y-127783333D01*
X103182700Y-127783333D02*
X103249366Y-127816667D01*
X103249366Y-127816667D02*
X103282700Y-127850000D01*
X103282700Y-127850000D02*
X103316033Y-127916667D01*
X103316033Y-127916667D02*
X103316033Y-128116667D01*
X103316033Y-128116667D02*
X103282700Y-128183333D01*
X103282700Y-128183333D02*
X103249366Y-128216667D01*
X105716666Y-117016033D02*
X105716666Y-117516033D01*
X105716666Y-117516033D02*
X105683333Y-117616033D01*
X105683333Y-117616033D02*
X105616666Y-117682700D01*
X105616666Y-117682700D02*
X105516666Y-117716033D01*
X105516666Y-117716033D02*
X105450000Y-117716033D01*
X106049999Y-117716033D02*
X106049999Y-117016033D01*
X106049999Y-117016033D02*
X106316666Y-117016033D01*
X106316666Y-117016033D02*
X106383333Y-117049366D01*
X106383333Y-117049366D02*
X106416666Y-117082700D01*
X106416666Y-117082700D02*
X106449999Y-117149366D01*
X106449999Y-117149366D02*
X106449999Y-117249366D01*
X106449999Y-117249366D02*
X106416666Y-117316033D01*
X106416666Y-117316033D02*
X106383333Y-117349366D01*
X106383333Y-117349366D02*
X106316666Y-117382700D01*
X106316666Y-117382700D02*
X106049999Y-117382700D01*
X106716666Y-117082700D02*
X106749999Y-117049366D01*
X106749999Y-117049366D02*
X106816666Y-117016033D01*
X106816666Y-117016033D02*
X106983333Y-117016033D01*
X106983333Y-117016033D02*
X107049999Y-117049366D01*
X107049999Y-117049366D02*
X107083333Y-117082700D01*
X107083333Y-117082700D02*
X107116666Y-117149366D01*
X107116666Y-117149366D02*
X107116666Y-117216033D01*
X107116666Y-117216033D02*
X107083333Y-117316033D01*
X107083333Y-117316033D02*
X106683333Y-117716033D01*
X106683333Y-117716033D02*
X107116666Y-117716033D01*
X106016033Y-129083333D02*
X106516033Y-129083333D01*
X106516033Y-129083333D02*
X106616033Y-129116666D01*
X106616033Y-129116666D02*
X106682700Y-129183333D01*
X106682700Y-129183333D02*
X106716033Y-129283333D01*
X106716033Y-129283333D02*
X106716033Y-129350000D01*
X106716033Y-128750000D02*
X106016033Y-128750000D01*
X106016033Y-128750000D02*
X106016033Y-128483333D01*
X106016033Y-128483333D02*
X106049366Y-128416667D01*
X106049366Y-128416667D02*
X106082700Y-128383333D01*
X106082700Y-128383333D02*
X106149366Y-128350000D01*
X106149366Y-128350000D02*
X106249366Y-128350000D01*
X106249366Y-128350000D02*
X106316033Y-128383333D01*
X106316033Y-128383333D02*
X106349366Y-128416667D01*
X106349366Y-128416667D02*
X106382700Y-128483333D01*
X106382700Y-128483333D02*
X106382700Y-128750000D01*
X106716033Y-127683333D02*
X106716033Y-128083333D01*
X106716033Y-127883333D02*
X106016033Y-127883333D01*
X106016033Y-127883333D02*
X106116033Y-127950000D01*
X106116033Y-127950000D02*
X106182700Y-128016667D01*
X106182700Y-128016667D02*
X106216033Y-128083333D01*
X89038095Y-116054819D02*
X89609523Y-116054819D01*
X89323809Y-117054819D02*
X89323809Y-116054819D01*
X89942857Y-117054819D02*
X89942857Y-116054819D01*
X89942857Y-116054819D02*
X90323809Y-116054819D01*
X90323809Y-116054819D02*
X90419047Y-116102438D01*
X90419047Y-116102438D02*
X90466666Y-116150057D01*
X90466666Y-116150057D02*
X90514285Y-116245295D01*
X90514285Y-116245295D02*
X90514285Y-116388152D01*
X90514285Y-116388152D02*
X90466666Y-116483390D01*
X90466666Y-116483390D02*
X90419047Y-116531009D01*
X90419047Y-116531009D02*
X90323809Y-116578628D01*
X90323809Y-116578628D02*
X89942857Y-116578628D01*
X91371428Y-116054819D02*
X91180952Y-116054819D01*
X91180952Y-116054819D02*
X91085714Y-116102438D01*
X91085714Y-116102438D02*
X91038095Y-116150057D01*
X91038095Y-116150057D02*
X90942857Y-116292914D01*
X90942857Y-116292914D02*
X90895238Y-116483390D01*
X90895238Y-116483390D02*
X90895238Y-116864342D01*
X90895238Y-116864342D02*
X90942857Y-116959580D01*
X90942857Y-116959580D02*
X90990476Y-117007200D01*
X90990476Y-117007200D02*
X91085714Y-117054819D01*
X91085714Y-117054819D02*
X91276190Y-117054819D01*
X91276190Y-117054819D02*
X91371428Y-117007200D01*
X91371428Y-117007200D02*
X91419047Y-116959580D01*
X91419047Y-116959580D02*
X91466666Y-116864342D01*
X91466666Y-116864342D02*
X91466666Y-116626247D01*
X91466666Y-116626247D02*
X91419047Y-116531009D01*
X91419047Y-116531009D02*
X91371428Y-116483390D01*
X91371428Y-116483390D02*
X91276190Y-116435771D01*
X91276190Y-116435771D02*
X91085714Y-116435771D01*
X91085714Y-116435771D02*
X90990476Y-116483390D01*
X90990476Y-116483390D02*
X90942857Y-116531009D01*
X90942857Y-116531009D02*
X90895238Y-116626247D01*
X93985714Y-115954819D02*
X94319047Y-116954819D01*
X94319047Y-116954819D02*
X94652380Y-115954819D01*
X95557142Y-116954819D02*
X95223809Y-116478628D01*
X94985714Y-116954819D02*
X94985714Y-115954819D01*
X94985714Y-115954819D02*
X95366666Y-115954819D01*
X95366666Y-115954819D02*
X95461904Y-116002438D01*
X95461904Y-116002438D02*
X95509523Y-116050057D01*
X95509523Y-116050057D02*
X95557142Y-116145295D01*
X95557142Y-116145295D02*
X95557142Y-116288152D01*
X95557142Y-116288152D02*
X95509523Y-116383390D01*
X95509523Y-116383390D02*
X95461904Y-116431009D01*
X95461904Y-116431009D02*
X95366666Y-116478628D01*
X95366666Y-116478628D02*
X94985714Y-116478628D01*
X95985714Y-116431009D02*
X96319047Y-116431009D01*
X96461904Y-116954819D02*
X95985714Y-116954819D01*
X95985714Y-116954819D02*
X95985714Y-115954819D01*
X95985714Y-115954819D02*
X96461904Y-115954819D01*
X97223809Y-116431009D02*
X96890476Y-116431009D01*
X96890476Y-116954819D02*
X96890476Y-115954819D01*
X96890476Y-115954819D02*
X97366666Y-115954819D01*
X81988095Y-121554819D02*
X82559523Y-121554819D01*
X82273809Y-122554819D02*
X82273809Y-121554819D01*
X82892857Y-122554819D02*
X82892857Y-121554819D01*
X82892857Y-121554819D02*
X83273809Y-121554819D01*
X83273809Y-121554819D02*
X83369047Y-121602438D01*
X83369047Y-121602438D02*
X83416666Y-121650057D01*
X83416666Y-121650057D02*
X83464285Y-121745295D01*
X83464285Y-121745295D02*
X83464285Y-121888152D01*
X83464285Y-121888152D02*
X83416666Y-121983390D01*
X83416666Y-121983390D02*
X83369047Y-122031009D01*
X83369047Y-122031009D02*
X83273809Y-122078628D01*
X83273809Y-122078628D02*
X82892857Y-122078628D01*
X84321428Y-121888152D02*
X84321428Y-122554819D01*
X84083333Y-121507200D02*
X83845238Y-122221485D01*
X83845238Y-122221485D02*
X84464285Y-122221485D01*
X81657143Y-124854819D02*
X81990476Y-125854819D01*
X81990476Y-125854819D02*
X82323809Y-124854819D01*
X82990476Y-125331009D02*
X83133333Y-125378628D01*
X83133333Y-125378628D02*
X83180952Y-125426247D01*
X83180952Y-125426247D02*
X83228571Y-125521485D01*
X83228571Y-125521485D02*
X83228571Y-125664342D01*
X83228571Y-125664342D02*
X83180952Y-125759580D01*
X83180952Y-125759580D02*
X83133333Y-125807200D01*
X83133333Y-125807200D02*
X83038095Y-125854819D01*
X83038095Y-125854819D02*
X82657143Y-125854819D01*
X82657143Y-125854819D02*
X82657143Y-124854819D01*
X82657143Y-124854819D02*
X82990476Y-124854819D01*
X82990476Y-124854819D02*
X83085714Y-124902438D01*
X83085714Y-124902438D02*
X83133333Y-124950057D01*
X83133333Y-124950057D02*
X83180952Y-125045295D01*
X83180952Y-125045295D02*
X83180952Y-125140533D01*
X83180952Y-125140533D02*
X83133333Y-125235771D01*
X83133333Y-125235771D02*
X83085714Y-125283390D01*
X83085714Y-125283390D02*
X82990476Y-125331009D01*
X82990476Y-125331009D02*
X82657143Y-125331009D01*
X83609524Y-125569104D02*
X84085714Y-125569104D01*
X83514286Y-125854819D02*
X83847619Y-124854819D01*
X83847619Y-124854819D02*
X84180952Y-125854819D01*
X84371429Y-124854819D02*
X84942857Y-124854819D01*
X84657143Y-125854819D02*
X84657143Y-124854819D01*
X115988095Y-121554819D02*
X116559523Y-121554819D01*
X116273809Y-122554819D02*
X116273809Y-121554819D01*
X116892857Y-122554819D02*
X116892857Y-121554819D01*
X116892857Y-121554819D02*
X117273809Y-121554819D01*
X117273809Y-121554819D02*
X117369047Y-121602438D01*
X117369047Y-121602438D02*
X117416666Y-121650057D01*
X117416666Y-121650057D02*
X117464285Y-121745295D01*
X117464285Y-121745295D02*
X117464285Y-121888152D01*
X117464285Y-121888152D02*
X117416666Y-121983390D01*
X117416666Y-121983390D02*
X117369047Y-122031009D01*
X117369047Y-122031009D02*
X117273809Y-122078628D01*
X117273809Y-122078628D02*
X116892857Y-122078628D01*
X117797619Y-121554819D02*
X118416666Y-121554819D01*
X118416666Y-121554819D02*
X118083333Y-121935771D01*
X118083333Y-121935771D02*
X118226190Y-121935771D01*
X118226190Y-121935771D02*
X118321428Y-121983390D01*
X118321428Y-121983390D02*
X118369047Y-122031009D01*
X118369047Y-122031009D02*
X118416666Y-122126247D01*
X118416666Y-122126247D02*
X118416666Y-122364342D01*
X118416666Y-122364342D02*
X118369047Y-122459580D01*
X118369047Y-122459580D02*
X118321428Y-122507200D01*
X118321428Y-122507200D02*
X118226190Y-122554819D01*
X118226190Y-122554819D02*
X117940476Y-122554819D01*
X117940476Y-122554819D02*
X117845238Y-122507200D01*
X117845238Y-122507200D02*
X117797619Y-122459580D01*
X115438095Y-124854819D02*
X115771428Y-125854819D01*
X115771428Y-125854819D02*
X116104761Y-124854819D01*
X116628571Y-124854819D02*
X116819047Y-124854819D01*
X116819047Y-124854819D02*
X116914285Y-124902438D01*
X116914285Y-124902438D02*
X117009523Y-124997676D01*
X117009523Y-124997676D02*
X117057142Y-125188152D01*
X117057142Y-125188152D02*
X117057142Y-125521485D01*
X117057142Y-125521485D02*
X117009523Y-125711961D01*
X117009523Y-125711961D02*
X116914285Y-125807200D01*
X116914285Y-125807200D02*
X116819047Y-125854819D01*
X116819047Y-125854819D02*
X116628571Y-125854819D01*
X116628571Y-125854819D02*
X116533333Y-125807200D01*
X116533333Y-125807200D02*
X116438095Y-125711961D01*
X116438095Y-125711961D02*
X116390476Y-125521485D01*
X116390476Y-125521485D02*
X116390476Y-125188152D01*
X116390476Y-125188152D02*
X116438095Y-124997676D01*
X116438095Y-124997676D02*
X116533333Y-124902438D01*
X116533333Y-124902438D02*
X116628571Y-124854819D01*
X117485714Y-124854819D02*
X117485714Y-125664342D01*
X117485714Y-125664342D02*
X117533333Y-125759580D01*
X117533333Y-125759580D02*
X117580952Y-125807200D01*
X117580952Y-125807200D02*
X117676190Y-125854819D01*
X117676190Y-125854819D02*
X117866666Y-125854819D01*
X117866666Y-125854819D02*
X117961904Y-125807200D01*
X117961904Y-125807200D02*
X118009523Y-125759580D01*
X118009523Y-125759580D02*
X118057142Y-125664342D01*
X118057142Y-125664342D02*
X118057142Y-124854819D01*
X118390476Y-124854819D02*
X118961904Y-124854819D01*
X118676190Y-125854819D02*
X118676190Y-124854819D01*
X106754819Y-123961904D02*
X106754819Y-123390476D01*
X107754819Y-123676190D02*
X106754819Y-123676190D01*
X107754819Y-123057142D02*
X106754819Y-123057142D01*
X106754819Y-123057142D02*
X106754819Y-122676190D01*
X106754819Y-122676190D02*
X106802438Y-122580952D01*
X106802438Y-122580952D02*
X106850057Y-122533333D01*
X106850057Y-122533333D02*
X106945295Y-122485714D01*
X106945295Y-122485714D02*
X107088152Y-122485714D01*
X107088152Y-122485714D02*
X107183390Y-122533333D01*
X107183390Y-122533333D02*
X107231009Y-122580952D01*
X107231009Y-122580952D02*
X107278628Y-122676190D01*
X107278628Y-122676190D02*
X107278628Y-123057142D01*
X106850057Y-122104761D02*
X106802438Y-122057142D01*
X106802438Y-122057142D02*
X106754819Y-121961904D01*
X106754819Y-121961904D02*
X106754819Y-121723809D01*
X106754819Y-121723809D02*
X106802438Y-121628571D01*
X106802438Y-121628571D02*
X106850057Y-121580952D01*
X106850057Y-121580952D02*
X106945295Y-121533333D01*
X106945295Y-121533333D02*
X107040533Y-121533333D01*
X107040533Y-121533333D02*
X107183390Y-121580952D01*
X107183390Y-121580952D02*
X107754819Y-122152380D01*
X107754819Y-122152380D02*
X107754819Y-121533333D01*
X105316033Y-135683333D02*
X105316033Y-135283333D01*
X106016033Y-135483333D02*
X105316033Y-135483333D01*
X106016033Y-135050000D02*
X105316033Y-135050000D01*
X105316033Y-135050000D02*
X105316033Y-134783333D01*
X105316033Y-134783333D02*
X105349366Y-134716667D01*
X105349366Y-134716667D02*
X105382700Y-134683333D01*
X105382700Y-134683333D02*
X105449366Y-134650000D01*
X105449366Y-134650000D02*
X105549366Y-134650000D01*
X105549366Y-134650000D02*
X105616033Y-134683333D01*
X105616033Y-134683333D02*
X105649366Y-134716667D01*
X105649366Y-134716667D02*
X105682700Y-134783333D01*
X105682700Y-134783333D02*
X105682700Y-135050000D01*
X106016033Y-133983333D02*
X106016033Y-134383333D01*
X106016033Y-134183333D02*
X105316033Y-134183333D01*
X105316033Y-134183333D02*
X105416033Y-134250000D01*
X105416033Y-134250000D02*
X105482700Y-134316667D01*
X105482700Y-134316667D02*
X105516033Y-134383333D01*
X108416033Y-135733333D02*
X109116033Y-135500000D01*
X109116033Y-135500000D02*
X108416033Y-135266666D01*
X109116033Y-135033333D02*
X108416033Y-135033333D01*
X108416033Y-135033333D02*
X108416033Y-134866666D01*
X108416033Y-134866666D02*
X108449366Y-134766666D01*
X108449366Y-134766666D02*
X108516033Y-134700000D01*
X108516033Y-134700000D02*
X108582700Y-134666666D01*
X108582700Y-134666666D02*
X108716033Y-134633333D01*
X108716033Y-134633333D02*
X108816033Y-134633333D01*
X108816033Y-134633333D02*
X108949366Y-134666666D01*
X108949366Y-134666666D02*
X109016033Y-134700000D01*
X109016033Y-134700000D02*
X109082700Y-134766666D01*
X109082700Y-134766666D02*
X109116033Y-134866666D01*
X109116033Y-134866666D02*
X109116033Y-135033333D01*
X109116033Y-134333333D02*
X108416033Y-134333333D01*
X108416033Y-134333333D02*
X108416033Y-134166666D01*
X108416033Y-134166666D02*
X108449366Y-134066666D01*
X108449366Y-134066666D02*
X108516033Y-134000000D01*
X108516033Y-134000000D02*
X108582700Y-133966666D01*
X108582700Y-133966666D02*
X108716033Y-133933333D01*
X108716033Y-133933333D02*
X108816033Y-133933333D01*
X108816033Y-133933333D02*
X108949366Y-133966666D01*
X108949366Y-133966666D02*
X109016033Y-134000000D01*
X109016033Y-134000000D02*
X109082700Y-134066666D01*
X109082700Y-134066666D02*
X109116033Y-134166666D01*
X109116033Y-134166666D02*
X109116033Y-134333333D01*
X116833333Y-132454819D02*
X116357143Y-132454819D01*
X116357143Y-132454819D02*
X116357143Y-131454819D01*
X117690476Y-132454819D02*
X117119048Y-132454819D01*
X117404762Y-132454819D02*
X117404762Y-131454819D01*
X117404762Y-131454819D02*
X117309524Y-131597676D01*
X117309524Y-131597676D02*
X117214286Y-131692914D01*
X117214286Y-131692914D02*
X117119048Y-131740533D01*
X116866666Y-116454819D02*
X116866666Y-117169104D01*
X116866666Y-117169104D02*
X116819047Y-117311961D01*
X116819047Y-117311961D02*
X116723809Y-117407200D01*
X116723809Y-117407200D02*
X116580952Y-117454819D01*
X116580952Y-117454819D02*
X116485714Y-117454819D01*
X117247619Y-116454819D02*
X117866666Y-116454819D01*
X117866666Y-116454819D02*
X117533333Y-116835771D01*
X117533333Y-116835771D02*
X117676190Y-116835771D01*
X117676190Y-116835771D02*
X117771428Y-116883390D01*
X117771428Y-116883390D02*
X117819047Y-116931009D01*
X117819047Y-116931009D02*
X117866666Y-117026247D01*
X117866666Y-117026247D02*
X117866666Y-117264342D01*
X117866666Y-117264342D02*
X117819047Y-117359580D01*
X117819047Y-117359580D02*
X117771428Y-117407200D01*
X117771428Y-117407200D02*
X117676190Y-117454819D01*
X117676190Y-117454819D02*
X117390476Y-117454819D01*
X117390476Y-117454819D02*
X117295238Y-117407200D01*
X117295238Y-117407200D02*
X117247619Y-117359580D01*
X82609524Y-137350295D02*
X82609524Y-136550295D01*
X82609524Y-136550295D02*
X82800000Y-136550295D01*
X82800000Y-136550295D02*
X82914286Y-136588390D01*
X82914286Y-136588390D02*
X82990476Y-136664580D01*
X82990476Y-136664580D02*
X83028571Y-136740771D01*
X83028571Y-136740771D02*
X83066667Y-136893152D01*
X83066667Y-136893152D02*
X83066667Y-137007438D01*
X83066667Y-137007438D02*
X83028571Y-137159819D01*
X83028571Y-137159819D02*
X82990476Y-137236009D01*
X82990476Y-137236009D02*
X82914286Y-137312200D01*
X82914286Y-137312200D02*
X82800000Y-137350295D01*
X82800000Y-137350295D02*
X82609524Y-137350295D01*
X83828571Y-137350295D02*
X83371428Y-137350295D01*
X83600000Y-137350295D02*
X83600000Y-136550295D01*
X83600000Y-136550295D02*
X83523809Y-136664580D01*
X83523809Y-136664580D02*
X83447619Y-136740771D01*
X83447619Y-136740771D02*
X83371428Y-136778866D01*
X84209524Y-137350295D02*
X84209524Y-136550295D01*
X84209524Y-136550295D02*
X84400000Y-136550295D01*
X84400000Y-136550295D02*
X84514286Y-136588390D01*
X84514286Y-136588390D02*
X84590476Y-136664580D01*
X84590476Y-136664580D02*
X84628571Y-136740771D01*
X84628571Y-136740771D02*
X84666667Y-136893152D01*
X84666667Y-136893152D02*
X84666667Y-137007438D01*
X84666667Y-137007438D02*
X84628571Y-137159819D01*
X84628571Y-137159819D02*
X84590476Y-137236009D01*
X84590476Y-137236009D02*
X84514286Y-137312200D01*
X84514286Y-137312200D02*
X84400000Y-137350295D01*
X84400000Y-137350295D02*
X84209524Y-137350295D01*
X84971428Y-136626485D02*
X85009524Y-136588390D01*
X85009524Y-136588390D02*
X85085714Y-136550295D01*
X85085714Y-136550295D02*
X85276190Y-136550295D01*
X85276190Y-136550295D02*
X85352381Y-136588390D01*
X85352381Y-136588390D02*
X85390476Y-136626485D01*
X85390476Y-136626485D02*
X85428571Y-136702676D01*
X85428571Y-136702676D02*
X85428571Y-136778866D01*
X85428571Y-136778866D02*
X85390476Y-136893152D01*
X85390476Y-136893152D02*
X84933333Y-137350295D01*
X84933333Y-137350295D02*
X85428571Y-137350295D01*
D12*
X106400000Y-132400000D02*
X106400000Y-131000000D01*
X107800000Y-131000000D02*
X107800000Y-132400000D01*
X106400000Y-131000000D02*
X107800000Y-131000000D01*
X107800000Y-132400000D02*
X106400000Y-132400000D01*
X86500000Y-129000000D02*
X86500000Y-126200000D01*
X86500000Y-126200000D02*
X88500000Y-126200000D01*
X88500000Y-126200000D02*
X88500000Y-129000000D01*
X88500000Y-129000000D02*
X86500000Y-129000000D01*
X100200000Y-130000000D02*
X100200000Y-127200000D01*
X100200000Y-127200000D02*
X102200000Y-127200000D01*
X102200000Y-127200000D02*
X102200000Y-130000000D01*
X102200000Y-130000000D02*
X100200000Y-130000000D01*
X103600000Y-130000000D02*
X103600000Y-127200000D01*
X103600000Y-127200000D02*
X105600000Y-127200000D01*
X105600000Y-127200000D02*
X105600000Y-130000000D01*
X105600000Y-130000000D02*
X103600000Y-130000000D01*
X107700000Y-118100000D02*
X107700000Y-120100000D01*
X104900000Y-118100000D02*
X107700000Y-118100000D01*
X104900000Y-120100000D02*
X104900000Y-118100000D01*
X107700000Y-120100000D02*
X104900000Y-120100000D01*
X107100000Y-127200000D02*
X109100000Y-127200000D01*
X107100000Y-130000000D02*
X107100000Y-127200000D01*
X109100000Y-130000000D02*
X107100000Y-130000000D01*
X109100000Y-127200000D02*
X109100000Y-130000000D01*
X92050000Y-117700000D02*
X92050000Y-116300000D01*
X93450000Y-116300000D02*
X93450000Y-117700000D01*
X92050000Y-116300000D02*
X93450000Y-116300000D01*
X93450000Y-117700000D02*
X92050000Y-117700000D01*
X82550000Y-124400000D02*
X82550000Y-123000000D01*
X83950000Y-123000000D02*
X83950000Y-124400000D01*
X82550000Y-123000000D02*
X83950000Y-123000000D01*
X83950000Y-124400000D02*
X82550000Y-124400000D01*
X116550000Y-124450000D02*
X116550000Y-123050000D01*
X117950000Y-123050000D02*
X117950000Y-124450000D01*
X116550000Y-123050000D02*
X117950000Y-123050000D01*
X117950000Y-124450000D02*
X116550000Y-124450000D01*
X105000000Y-122400000D02*
X105000000Y-121000000D01*
X106400000Y-121000000D02*
X106400000Y-122400000D01*
X105000000Y-121000000D02*
X106400000Y-121000000D01*
X106400000Y-122400000D02*
X105000000Y-122400000D01*
X107800000Y-135500000D02*
X106400000Y-135500000D01*
X106400000Y-134100000D02*
X107800000Y-134100000D01*
X107800000Y-134100000D02*
X107800000Y-135500000D01*
X106400000Y-135500000D02*
X106400000Y-134100000D01*
X106222500Y-124537258D02*
X106222500Y-124062742D01*
X105177500Y-124537258D02*
X105177500Y-124062742D01*
X112897936Y-131090000D02*
X114102064Y-131090000D01*
X112897936Y-132910000D02*
X114102064Y-132910000D01*
X118310000Y-120210000D02*
X118310000Y-120970000D01*
X118310000Y-119450000D02*
X118310000Y-118245000D01*
X118310000Y-119450000D02*
X117763471Y-119450000D01*
X116892470Y-118245000D02*
X116090000Y-118245000D01*
X116090000Y-119450000D02*
X116090000Y-118245000D01*
X118310000Y-120970000D02*
X117200000Y-120970000D01*
X118310000Y-118245000D02*
X117507530Y-118245000D01*
X116636529Y-119450000D02*
X116090000Y-119450000D01*
X95300000Y-136790000D02*
X95300000Y-138790000D01*
X95300000Y-140690000D02*
X95300000Y-142590000D01*
X104700000Y-136790000D02*
X104700000Y-138790000D01*
X104700000Y-140690000D02*
X104700000Y-142590000D01*
X95300000Y-142590000D02*
X104700000Y-142590000D01*
X87977258Y-123862500D02*
X87502742Y-123862500D01*
X87977258Y-122817500D02*
X87502742Y-122817500D01*
X92877500Y-138502742D02*
X92877500Y-138977258D01*
X93922500Y-138502742D02*
X93922500Y-138977258D01*
X88332420Y-131050000D02*
X88613580Y-131050000D01*
X88332420Y-130030000D02*
X88613580Y-130030000D01*
X83935000Y-133242500D02*
X82465000Y-133242500D01*
X83935000Y-135527500D02*
X83935000Y-133242500D01*
X82465000Y-133242500D02*
X82465000Y-135527500D01*
X102410000Y-120355000D02*
X101150000Y-120355000D01*
X95590000Y-126365000D02*
X95590000Y-120355000D01*
X95590000Y-120355000D02*
X96850000Y-120355000D01*
X102410000Y-124115000D02*
X102410000Y-120355000D01*
X104500000Y-132740000D02*
X104500000Y-130740000D01*
X104500000Y-130740000D02*
X100600000Y-130740000D01*
X104500000Y-132740000D02*
X100600000Y-132740000D01*
X83762742Y-132709500D02*
X84237258Y-132709500D01*
X83762742Y-131664500D02*
X84237258Y-131664500D01*
X85565000Y-122340000D02*
X86265000Y-122340000D01*
X87165000Y-121840000D02*
X87565000Y-121840000D01*
X85765000Y-120740000D02*
X85765000Y-117840000D01*
X88965000Y-120740000D02*
X88965000Y-117840000D01*
X88965000Y-117840000D02*
X88365000Y-117840000D01*
X85565000Y-121640000D02*
X85565000Y-122340000D01*
X85765000Y-117840000D02*
X86365000Y-117840000D01*
X113210000Y-125265000D02*
X113210000Y-122815000D01*
X109990000Y-123465000D02*
X109990000Y-125265000D01*
X114384420Y-128250000D02*
X114665580Y-128250000D01*
X114384420Y-127230000D02*
X114665580Y-127230000D01*
X85535000Y-133242500D02*
X84065000Y-133242500D01*
X84065000Y-133242500D02*
X84065000Y-135527500D01*
X85535000Y-135527500D02*
X85535000Y-133242500D01*
X114810000Y-119740000D02*
X114810000Y-120390000D01*
X111690000Y-119740000D02*
X111690000Y-119090000D01*
X114810000Y-119740000D02*
X114810000Y-118065000D01*
X111690000Y-119740000D02*
X111690000Y-120390000D01*
X92740580Y-131050000D02*
X92459420Y-131050000D01*
X92740580Y-130030000D02*
X92459420Y-130030000D01*
X109684420Y-121250000D02*
X109965580Y-121250000D01*
X109684420Y-120230000D02*
X109965580Y-120230000D01*
X90370000Y-136900000D02*
X93820000Y-136900000D01*
X90370000Y-131780000D02*
X92320000Y-131780000D01*
X90370000Y-131780000D02*
X88420000Y-131780000D01*
X90370000Y-136900000D02*
X88420000Y-136900000D01*
X95722500Y-131127742D02*
X95722500Y-131602258D01*
X94677500Y-131127742D02*
X94677500Y-131602258D01*
X83762742Y-130931500D02*
X84237258Y-130931500D01*
X83762742Y-129886500D02*
X84237258Y-129886500D01*
X82090000Y-119650000D02*
X82090000Y-118445000D01*
X82892470Y-118445000D02*
X82090000Y-118445000D01*
X82636529Y-119650000D02*
X82090000Y-119650000D01*
X84310000Y-119650000D02*
X84310000Y-118445000D01*
X84310000Y-119650000D02*
X83763471Y-119650000D01*
X84310000Y-118445000D02*
X83507530Y-118445000D01*
X84310000Y-121170000D02*
X83200000Y-121170000D01*
X84310000Y-120410000D02*
X84310000Y-121170000D01*
X110962742Y-129987500D02*
X111437258Y-129987500D01*
X110962742Y-128942500D02*
X111437258Y-128942500D01*
X107877500Y-138502742D02*
X107877500Y-138977258D01*
X108922500Y-138502742D02*
X108922500Y-138977258D01*
X107122500Y-138527742D02*
X107122500Y-139002258D01*
X106077500Y-138527742D02*
X106077500Y-139002258D01*
X87502742Y-125662500D02*
X87977258Y-125662500D01*
X87502742Y-124617500D02*
X87977258Y-124617500D01*
X110962742Y-127217500D02*
X111437258Y-127217500D01*
X110962742Y-128262500D02*
X111437258Y-128262500D01*
X103090000Y-124440580D02*
X103090000Y-124159420D01*
X104110000Y-124440580D02*
X104110000Y-124159420D01*
X96440000Y-130940000D02*
X96440000Y-132615000D01*
X96440000Y-130940000D02*
X96440000Y-130290000D01*
X99560000Y-130940000D02*
X99560000Y-131590000D01*
X99560000Y-130940000D02*
X99560000Y-130290000D01*
X104110000Y-119149420D02*
X104110000Y-119430580D01*
X103090000Y-119149420D02*
X103090000Y-119430580D01*
X114665580Y-128955000D02*
X114384420Y-128955000D01*
X114665580Y-129975000D02*
X114384420Y-129975000D01*
X114822500Y-124577258D02*
X114822500Y-124102742D01*
X113777500Y-124577258D02*
X113777500Y-124102742D01*
X109537742Y-119087500D02*
X110012258Y-119087500D01*
X109537742Y-118042500D02*
X110012258Y-118042500D01*
X89605000Y-122140000D02*
X89605000Y-120190000D01*
X89605000Y-122140000D02*
X89605000Y-124090000D01*
X94725000Y-122140000D02*
X94725000Y-118690000D01*
X94725000Y-122140000D02*
X94725000Y-124090000D01*
%LPC*%
D13*
X107100000Y-131700000D03*
D14*
X87500000Y-126950000D03*
X87500000Y-128250000D03*
X101200000Y-127950000D03*
X101200000Y-129250000D03*
X104600000Y-127950000D03*
X104600000Y-129250000D03*
D15*
X106950000Y-119100000D03*
X105650000Y-119100000D03*
D14*
X108100000Y-127950000D03*
X108100000Y-129250000D03*
D13*
X92750000Y-117000000D03*
X83250000Y-123700000D03*
X117250000Y-123750000D03*
X105700000Y-121700000D03*
X107100000Y-134800000D03*
D16*
X105700000Y-125125000D03*
X105700000Y-123475000D03*
D17*
X114987500Y-132000000D03*
X112012500Y-132000000D03*
D13*
X117200000Y-120210000D03*
D18*
X117200000Y-118940000D03*
D19*
X102890000Y-136090000D03*
X97110000Y-136090000D03*
D20*
X96750000Y-134645000D03*
X97550000Y-134645000D03*
D21*
X98750000Y-134645000D03*
X99750000Y-134645000D03*
X100250000Y-134645000D03*
X101250000Y-134645000D03*
D20*
X102450000Y-134645000D03*
X103250000Y-134645000D03*
X103250000Y-134645000D03*
X102450000Y-134645000D03*
D21*
X101750000Y-134645000D03*
X100750000Y-134645000D03*
X99250000Y-134645000D03*
X98250000Y-134645000D03*
D20*
X97550000Y-134645000D03*
X96750000Y-134645000D03*
D22*
X95680000Y-139740000D03*
X104320000Y-139740000D03*
D23*
X104320000Y-135560000D03*
X95680000Y-135560000D03*
D24*
X88565000Y-123340000D03*
X86915000Y-123340000D03*
D25*
X93400000Y-137915000D03*
X93400000Y-139565000D03*
D26*
X87698000Y-130540000D03*
X89248000Y-130540000D03*
D27*
X83200000Y-133940000D03*
X83200000Y-135515000D03*
D28*
X96700000Y-125415000D03*
X99000000Y-125415000D03*
D29*
X99000000Y-119115000D03*
D28*
X101300000Y-125415000D03*
D30*
X103900000Y-131740000D03*
X100600000Y-131740000D03*
D31*
X83175000Y-132187000D03*
X84825000Y-132187000D03*
D32*
X86365000Y-121540000D03*
D33*
X87365000Y-118290000D03*
D32*
X88365000Y-121540000D03*
D34*
X112550000Y-123015000D03*
X111600000Y-123015000D03*
X110650000Y-123015000D03*
X110650000Y-125715000D03*
X112550000Y-125715000D03*
D26*
X113750000Y-127740000D03*
X115300000Y-127740000D03*
D27*
X84800000Y-133940000D03*
X84800000Y-135515000D03*
D35*
X114200000Y-118802500D03*
X112300000Y-118802500D03*
X113250000Y-120677500D03*
D36*
X93375000Y-130540000D03*
X91825000Y-130540000D03*
D26*
X109050000Y-120740000D03*
X110600000Y-120740000D03*
D37*
X92845000Y-136245000D03*
X92845000Y-134975000D03*
X92845000Y-133705000D03*
X92845000Y-132435000D03*
X87895000Y-132435000D03*
X87895000Y-133705000D03*
X87895000Y-134975000D03*
X87895000Y-136245000D03*
D38*
X90370000Y-134340000D03*
D25*
X95200000Y-130540000D03*
X95200000Y-132190000D03*
D31*
X83175000Y-130409000D03*
X84825000Y-130409000D03*
D13*
X83200000Y-120410000D03*
D18*
X83200000Y-119140000D03*
D31*
X110375000Y-129465000D03*
X112025000Y-129465000D03*
D25*
X108400000Y-137915000D03*
X108400000Y-139565000D03*
X106600000Y-137940000D03*
X106600000Y-139590000D03*
D31*
X86915000Y-125140000D03*
X88565000Y-125140000D03*
X110375000Y-127740000D03*
X112025000Y-127740000D03*
D39*
X103600000Y-123525000D03*
X103600000Y-125075000D03*
D40*
X97050000Y-131877500D03*
X98950000Y-131877500D03*
X98000000Y-130002500D03*
D41*
X103600000Y-118515000D03*
X103600000Y-120065000D03*
D36*
X115300000Y-129465000D03*
X113750000Y-129465000D03*
D16*
X114300000Y-125165000D03*
X114300000Y-123515000D03*
D31*
X108950000Y-118565000D03*
X110600000Y-118565000D03*
D42*
X94070000Y-119665000D03*
X92800000Y-119665000D03*
X91530000Y-119665000D03*
X90260000Y-119665000D03*
X90260000Y-124615000D03*
X91530000Y-124615000D03*
X92800000Y-124615000D03*
X94070000Y-124615000D03*
%LPD*%
M02*
