M48
; DRILL file {KiCad 7.0.6} date Mon 04 Sep 2023 14:52:54
; FORMAT={-:-/ absolute / metric / decimal}
; #@! TF.CreationDate,2023-09-04T14:52:54+12:00
; #@! TF.GenerationSoftware,Kicad,Pcbnew,7.0.6
; #@! TF.FileFunction,MixedPlating,1,2
FMAT,2
METRIC
; #@! TA.AperFunction,Plated,PTH,ViaDrill
T1C0.400
; #@! TA.AperFunction,Plated,PTH,ComponentDrill
T2C0.600
; #@! TA.AperFunction,Plated,PTH,ComponentDrill
T3C0.650
; #@! TA.AperFunction,NonPlated,NPTH,ComponentDrill
T4C0.650
%
G90
G05
T1
X90.25Y-132.24
X90.25Y-136.44
X90.6Y-130.54
X94.1Y-126.6
X96.705Y-123.8
X103.6Y-121.8
X103.6Y-121.8
X104.6Y-126.6
X108.0Y-120.74
X109.25Y-123.0
X110.1Y-132.0
X111.6Y-124.34
X112.25Y-117.639
X113.8Y-126.54
T3
X83.2Y-119.14
X83.2Y-120.41
X117.2Y-118.94
X117.2Y-120.21
T4
X97.11Y-136.09
X102.89Y-136.09
T2
X95.68Y-135.01G85X95.68Y-136.11
G05
X95.68Y-139.44G85X95.68Y-140.04
G05
X104.32Y-135.01G85X104.32Y-136.11
G05
X104.32Y-139.44G85X104.32Y-140.04
G05
T0
M30
