%TF.GenerationSoftware,KiCad,Pcbnew,7.0.6*%
%TF.CreationDate,2023-09-04T14:52:52+12:00*%
%TF.ProjectId,GBA_lipo,4742415f-6c69-4706-9f2e-6b696361645f,rev?*%
%TF.SameCoordinates,Original*%
%TF.FileFunction,Copper,L1,Top*%
%TF.FilePolarity,Positive*%
%FSLAX46Y46*%
G04 Gerber Fmt 4.6, Leading zero omitted, Abs format (unit mm)*
G04 Created by KiCad (PCBNEW 7.0.6) date 2023-09-04 14:52:52*
%MOMM*%
%LPD*%
G01*
G04 APERTURE LIST*
G04 Aperture macros list*
%AMRoundRect*
0 Rectangle with rounded corners*
0 $1 Rounding radius*
0 $2 $3 $4 $5 $6 $7 $8 $9 X,Y pos of 4 corners*
0 Add a 4 corners polygon primitive as box body*
4,1,4,$2,$3,$4,$5,$6,$7,$8,$9,$2,$3,0*
0 Add four circle primitives for the rounded corners*
1,1,$1+$1,$2,$3*
1,1,$1+$1,$4,$5*
1,1,$1+$1,$6,$7*
1,1,$1+$1,$8,$9*
0 Add four rect primitives between the rounded corners*
20,1,$1+$1,$2,$3,$4,$5,0*
20,1,$1+$1,$4,$5,$6,$7,0*
20,1,$1+$1,$6,$7,$8,$9,0*
20,1,$1+$1,$8,$9,$2,$3,0*%
G04 Aperture macros list end*
%TA.AperFunction,SMDPad,CuDef*%
%ADD10R,1.000000X1.000000*%
%TD*%
%TA.AperFunction,SMDPad,CuDef*%
%ADD11R,1.500000X1.000000*%
%TD*%
%TA.AperFunction,SMDPad,CuDef*%
%ADD12R,1.000000X1.500000*%
%TD*%
%TA.AperFunction,SMDPad,CuDef*%
%ADD13RoundRect,0.200000X0.275000X-0.200000X0.275000X0.200000X-0.275000X0.200000X-0.275000X-0.200000X0*%
%TD*%
%TA.AperFunction,SMDPad,CuDef*%
%ADD14RoundRect,0.250001X-0.462499X-0.624999X0.462499X-0.624999X0.462499X0.624999X-0.462499X0.624999X0*%
%TD*%
%TA.AperFunction,ComponentPad*%
%ADD15R,1.000000X1.000000*%
%TD*%
%TA.AperFunction,ComponentPad*%
%ADD16O,1.000000X1.000000*%
%TD*%
%TA.AperFunction,SMDPad,CuDef*%
%ADD17R,0.600000X1.450000*%
%TD*%
%TA.AperFunction,SMDPad,CuDef*%
%ADD18R,0.300000X1.450000*%
%TD*%
%TA.AperFunction,ComponentPad*%
%ADD19O,1.000000X1.600000*%
%TD*%
%TA.AperFunction,ComponentPad*%
%ADD20O,1.000000X2.100000*%
%TD*%
%TA.AperFunction,SMDPad,CuDef*%
%ADD21RoundRect,0.200000X0.200000X0.275000X-0.200000X0.275000X-0.200000X-0.275000X0.200000X-0.275000X0*%
%TD*%
%TA.AperFunction,SMDPad,CuDef*%
%ADD22RoundRect,0.200000X-0.275000X0.200000X-0.275000X-0.200000X0.275000X-0.200000X0.275000X0.200000X0*%
%TD*%
%TA.AperFunction,SMDPad,CuDef*%
%ADD23RoundRect,0.225000X-0.225000X-0.250000X0.225000X-0.250000X0.225000X0.250000X-0.225000X0.250000X0*%
%TD*%
%TA.AperFunction,SMDPad,CuDef*%
%ADD24RoundRect,0.218750X-0.256250X0.218750X-0.256250X-0.218750X0.256250X-0.218750X0.256250X0.218750X0*%
%TD*%
%TA.AperFunction,SMDPad,CuDef*%
%ADD25R,1.500000X2.000000*%
%TD*%
%TA.AperFunction,SMDPad,CuDef*%
%ADD26R,3.800000X2.000000*%
%TD*%
%TA.AperFunction,SMDPad,CuDef*%
%ADD27R,0.900000X1.200000*%
%TD*%
%TA.AperFunction,SMDPad,CuDef*%
%ADD28RoundRect,0.200000X-0.200000X-0.275000X0.200000X-0.275000X0.200000X0.275000X-0.200000X0.275000X0*%
%TD*%
%TA.AperFunction,SMDPad,CuDef*%
%ADD29R,1.200000X1.200000*%
%TD*%
%TA.AperFunction,SMDPad,CuDef*%
%ADD30R,1.600000X1.500000*%
%TD*%
%TA.AperFunction,SMDPad,CuDef*%
%ADD31R,0.650000X1.560000*%
%TD*%
%TA.AperFunction,SMDPad,CuDef*%
%ADD32RoundRect,0.150000X-0.150000X0.587500X-0.150000X-0.587500X0.150000X-0.587500X0.150000X0.587500X0*%
%TD*%
%TA.AperFunction,SMDPad,CuDef*%
%ADD33RoundRect,0.225000X0.225000X0.250000X-0.225000X0.250000X-0.225000X-0.250000X0.225000X-0.250000X0*%
%TD*%
%TA.AperFunction,SMDPad,CuDef*%
%ADD34RoundRect,0.150000X0.825000X0.150000X-0.825000X0.150000X-0.825000X-0.150000X0.825000X-0.150000X0*%
%TD*%
%TA.AperFunction,SMDPad,CuDef*%
%ADD35R,2.290000X3.000000*%
%TD*%
%TA.AperFunction,SMDPad,CuDef*%
%ADD36RoundRect,0.225000X0.250000X-0.225000X0.250000X0.225000X-0.250000X0.225000X-0.250000X-0.225000X0*%
%TD*%
%TA.AperFunction,SMDPad,CuDef*%
%ADD37RoundRect,0.150000X0.150000X-0.587500X0.150000X0.587500X-0.150000X0.587500X-0.150000X-0.587500X0*%
%TD*%
%TA.AperFunction,SMDPad,CuDef*%
%ADD38RoundRect,0.225000X-0.250000X0.225000X-0.250000X-0.225000X0.250000X-0.225000X0.250000X0.225000X0*%
%TD*%
%TA.AperFunction,SMDPad,CuDef*%
%ADD39RoundRect,0.150000X-0.150000X0.825000X-0.150000X-0.825000X0.150000X-0.825000X0.150000X0.825000X0*%
%TD*%
%TA.AperFunction,ViaPad*%
%ADD40C,0.800000*%
%TD*%
%TA.AperFunction,Conductor*%
%ADD41C,0.600000*%
%TD*%
%TA.AperFunction,Conductor*%
%ADD42C,0.800000*%
%TD*%
%TA.AperFunction,Conductor*%
%ADD43C,1.000000*%
%TD*%
%TA.AperFunction,Conductor*%
%ADD44C,1.200000*%
%TD*%
%TA.AperFunction,Conductor*%
%ADD45C,0.250000*%
%TD*%
%TA.AperFunction,Conductor*%
%ADD46C,0.400000*%
%TD*%
%TA.AperFunction,Conductor*%
%ADD47C,0.200000*%
%TD*%
G04 APERTURE END LIST*
D10*
X107100000Y-131700000D03*
D11*
X87500000Y-126950000D03*
X87500000Y-128250000D03*
X101200000Y-127950000D03*
X101200000Y-129250000D03*
X104600000Y-127950000D03*
X104600000Y-129250000D03*
D12*
X106950000Y-119100000D03*
X105650000Y-119100000D03*
D11*
X108100000Y-127950000D03*
X108100000Y-129250000D03*
D10*
X92750000Y-117000000D03*
X83250000Y-123700000D03*
X117250000Y-123750000D03*
X105700000Y-121700000D03*
X107100000Y-134800000D03*
D13*
X105700000Y-125125000D03*
X105700000Y-123475000D03*
D14*
X114987500Y-132000000D03*
X112012500Y-132000000D03*
D15*
X117200000Y-120210000D03*
D16*
X117200000Y-118940000D03*
D17*
X96750000Y-134645000D03*
X97550000Y-134645000D03*
D18*
X98750000Y-134645000D03*
X99750000Y-134645000D03*
X100250000Y-134645000D03*
X101250000Y-134645000D03*
D17*
X102450000Y-134645000D03*
X103250000Y-134645000D03*
X103250000Y-134645000D03*
X102450000Y-134645000D03*
D18*
X101750000Y-134645000D03*
X100750000Y-134645000D03*
X99250000Y-134645000D03*
X98250000Y-134645000D03*
D17*
X97550000Y-134645000D03*
X96750000Y-134645000D03*
D19*
X95680000Y-139740000D03*
X104320000Y-139740000D03*
D20*
X104320000Y-135560000D03*
X95680000Y-135560000D03*
D21*
X88565000Y-123340000D03*
X86915000Y-123340000D03*
D22*
X93400000Y-137915000D03*
X93400000Y-139565000D03*
D23*
X87698000Y-130540000D03*
X89248000Y-130540000D03*
D24*
X83200000Y-133940000D03*
X83200000Y-135515000D03*
D25*
X96700000Y-125415000D03*
X99000000Y-125415000D03*
D26*
X99000000Y-119115000D03*
D25*
X101300000Y-125415000D03*
D27*
X103900000Y-131740000D03*
X100600000Y-131740000D03*
D28*
X83175000Y-132187000D03*
X84825000Y-132187000D03*
D29*
X86365000Y-121540000D03*
D30*
X87365000Y-118290000D03*
D29*
X88365000Y-121540000D03*
D31*
X112550000Y-123015000D03*
X111600000Y-123015000D03*
X110650000Y-123015000D03*
X110650000Y-125715000D03*
X112550000Y-125715000D03*
D23*
X113750000Y-127740000D03*
X115300000Y-127740000D03*
D24*
X84800000Y-133940000D03*
X84800000Y-135515000D03*
D32*
X114200000Y-118802500D03*
X112300000Y-118802500D03*
X113250000Y-120677500D03*
D33*
X93375000Y-130540000D03*
X91825000Y-130540000D03*
D23*
X109050000Y-120740000D03*
X110600000Y-120740000D03*
D34*
X92845000Y-136245000D03*
X92845000Y-134975000D03*
X92845000Y-133705000D03*
X92845000Y-132435000D03*
X87895000Y-132435000D03*
X87895000Y-133705000D03*
X87895000Y-134975000D03*
X87895000Y-136245000D03*
D35*
X90370000Y-134340000D03*
D22*
X95200000Y-130540000D03*
X95200000Y-132190000D03*
D28*
X83175000Y-130409000D03*
X84825000Y-130409000D03*
D15*
X83200000Y-120410000D03*
D16*
X83200000Y-119140000D03*
D28*
X110375000Y-129465000D03*
X112025000Y-129465000D03*
D22*
X108400000Y-137915000D03*
X108400000Y-139565000D03*
X106600000Y-137940000D03*
X106600000Y-139590000D03*
D28*
X86915000Y-125140000D03*
X88565000Y-125140000D03*
X110375000Y-127740000D03*
X112025000Y-127740000D03*
D36*
X103600000Y-123525000D03*
X103600000Y-125075000D03*
D37*
X97050000Y-131877500D03*
X98950000Y-131877500D03*
X98000000Y-130002500D03*
D38*
X103600000Y-118515000D03*
X103600000Y-120065000D03*
D33*
X115300000Y-129465000D03*
X113750000Y-129465000D03*
D13*
X114300000Y-125165000D03*
X114300000Y-123515000D03*
D28*
X108950000Y-118565000D03*
X110600000Y-118565000D03*
D39*
X94070000Y-119665000D03*
X92800000Y-119665000D03*
X91530000Y-119665000D03*
X90260000Y-119665000D03*
X90260000Y-124615000D03*
X91530000Y-124615000D03*
X92800000Y-124615000D03*
X94070000Y-124615000D03*
D40*
X94100000Y-126600000D03*
X104600000Y-126600000D03*
X109250000Y-123000000D03*
X110100000Y-132000000D03*
X90250000Y-132240498D03*
X90250000Y-136439502D03*
X103600000Y-121800000D03*
X111600000Y-124340000D03*
X112250000Y-117639500D03*
X113800000Y-126540000D03*
X108000000Y-120740000D03*
X90600000Y-130540000D03*
X103600000Y-121800000D03*
X96705499Y-123800136D03*
D41*
X103900000Y-131740000D02*
X105140000Y-131740000D01*
X105140000Y-131740000D02*
X107100000Y-133700000D01*
X107100000Y-133700000D02*
X107100000Y-134800000D01*
D42*
X106950000Y-119100000D02*
X108415000Y-119100000D01*
X108415000Y-119100000D02*
X108950000Y-118565000D01*
X104600000Y-126600000D02*
X104625000Y-126600000D01*
X104625000Y-126600000D02*
X105700000Y-125525000D01*
X105700000Y-125525000D02*
X105700000Y-125125000D01*
X104600000Y-127950000D02*
X104600000Y-126600000D01*
X94100000Y-126600000D02*
X94100000Y-124645000D01*
X94100000Y-124645000D02*
X94070000Y-124615000D01*
X101300000Y-125415000D02*
X103260000Y-125415000D01*
X103260000Y-125415000D02*
X103600000Y-125075000D01*
X101200000Y-127950000D02*
X101200000Y-125515000D01*
X101200000Y-125515000D02*
X101300000Y-125415000D01*
X105700000Y-123475000D02*
X105700000Y-119150000D01*
X105700000Y-119150000D02*
X105650000Y-119100000D01*
D43*
X103600000Y-123525000D02*
X103600000Y-121800000D01*
X103600000Y-120065000D02*
X103600000Y-121800000D01*
D41*
X94070000Y-119665000D02*
X94070000Y-118730000D01*
X95235000Y-117565000D02*
X104150305Y-117565000D01*
X94070000Y-118730000D02*
X95235000Y-117565000D01*
X104150305Y-117565000D02*
X105650000Y-119064695D01*
X105650000Y-119064695D02*
X105650000Y-119100000D01*
D42*
X112025000Y-127740000D02*
X113750000Y-127740000D01*
D41*
X110375000Y-127740000D02*
X110375000Y-127815000D01*
X110375000Y-127815000D02*
X112025000Y-129465000D01*
X110375000Y-127740000D02*
X110525000Y-127740000D01*
X110525000Y-127740000D02*
X112550000Y-125715000D01*
D44*
X108000000Y-120740000D02*
X109250000Y-120740000D01*
D41*
X110600000Y-118565000D02*
X110600000Y-117600000D01*
X110600000Y-117600000D02*
X111460500Y-116739500D01*
X111460500Y-116739500D02*
X113489500Y-116739500D01*
X113489500Y-116739500D02*
X114200000Y-117450000D01*
X114200000Y-117450000D02*
X114200000Y-118802500D01*
X112250000Y-117639500D02*
X112300000Y-117689500D01*
X112300000Y-117689500D02*
X112300000Y-118802500D01*
X113250000Y-120677500D02*
X114300000Y-121727500D01*
X114300000Y-121727500D02*
X114300000Y-123515000D01*
D42*
X86915000Y-125140000D02*
X86915000Y-126365000D01*
X86915000Y-126365000D02*
X87500000Y-126950000D01*
D41*
X110100000Y-132000000D02*
X112012500Y-132000000D01*
D42*
X104000000Y-131640000D02*
X103900000Y-131740000D01*
D41*
X110650000Y-123015000D02*
X109265000Y-123015000D01*
X109265000Y-123015000D02*
X109250000Y-123000000D01*
X92800000Y-119665000D02*
X92800000Y-117050000D01*
X92800000Y-117050000D02*
X92750000Y-117000000D01*
D45*
X90250000Y-136439502D02*
X88089502Y-136439502D01*
X88089502Y-136439502D02*
X87895000Y-136245000D01*
X90444502Y-132435000D02*
X90250000Y-132240498D01*
X92845000Y-132435000D02*
X90444502Y-132435000D01*
D41*
X113750000Y-126590000D02*
X113800000Y-126540000D01*
D42*
X96700000Y-125415000D02*
X96700000Y-123805635D01*
D41*
X113750000Y-127740000D02*
X113750000Y-126590000D01*
X111600000Y-123015000D02*
X111600000Y-124340000D01*
X92845000Y-133705000D02*
X93825000Y-133705000D01*
X104495000Y-139565000D02*
X104320000Y-139740000D01*
X103405000Y-134645000D02*
X104320000Y-135560000D01*
X89735000Y-119140000D02*
X90260000Y-119665000D01*
X108400000Y-139565000D02*
X104495000Y-139565000D01*
X103250000Y-134645000D02*
X103405000Y-134645000D01*
D42*
X89248000Y-130540000D02*
X91825000Y-130540000D01*
D41*
X83200000Y-119140000D02*
X89735000Y-119140000D01*
D42*
X96700000Y-123805635D02*
X96705499Y-123800136D01*
D41*
X102450000Y-133190000D02*
X103900000Y-131740000D01*
X102450000Y-134645000D02*
X102450000Y-133190000D01*
D46*
X85530000Y-136245000D02*
X87895000Y-136245000D01*
X83200000Y-135515000D02*
X84800000Y-135515000D01*
X84800000Y-135515000D02*
X85530000Y-136245000D01*
D41*
X98000000Y-130002500D02*
X98000000Y-129340000D01*
X87698000Y-130307532D02*
X87698000Y-130540000D01*
X112025000Y-129465000D02*
X113750000Y-129465000D01*
X114300000Y-125165000D02*
X113100000Y-125165000D01*
X113100000Y-125165000D02*
X112550000Y-125715000D01*
D46*
X82375480Y-133115480D02*
X82375480Y-131208520D01*
X83200000Y-133940000D02*
X82375480Y-133115480D01*
X82375480Y-131208520D02*
X83175000Y-130409000D01*
X83175000Y-132187000D02*
X83175000Y-132315000D01*
X83175000Y-132315000D02*
X84800000Y-133940000D01*
D47*
X98750000Y-135619022D02*
X98750000Y-134645000D01*
X106600000Y-137940000D02*
X101070978Y-137940000D01*
X101070978Y-137940000D02*
X98750000Y-135619022D01*
X102755602Y-136909520D02*
X101750000Y-135903918D01*
X101750000Y-135903918D02*
X101750000Y-134645000D01*
X108400000Y-137915000D02*
X107394520Y-136909520D01*
X107394520Y-136909520D02*
X102755602Y-136909520D01*
D46*
X85624520Y-132364520D02*
X86965000Y-133705000D01*
X85624520Y-131208520D02*
X85624520Y-132364520D01*
X84825000Y-130409000D02*
X85624520Y-131208520D01*
X88460000Y-133705000D02*
X87760000Y-133705000D01*
X86965000Y-133705000D02*
X87895000Y-133705000D01*
X87184365Y-134975000D02*
X87895000Y-134975000D01*
X84825000Y-132187000D02*
X84825000Y-132615635D01*
X88206000Y-134975000D02*
X87506000Y-134975000D01*
X84825000Y-132615635D02*
X87184365Y-134975000D01*
D41*
X88565000Y-123340000D02*
X91530000Y-120375000D01*
X91530000Y-120375000D02*
X91530000Y-119665000D01*
X88565000Y-125140000D02*
X88565000Y-123340000D01*
X86365000Y-122790000D02*
X86915000Y-123340000D01*
X86365000Y-121540000D02*
X86365000Y-122790000D01*
X92845000Y-134975000D02*
X93835000Y-134975000D01*
X94319520Y-135459520D02*
X94319520Y-137420480D01*
X93835000Y-134975000D02*
X94319520Y-135459520D01*
X94319520Y-137420480D02*
X93825000Y-137915000D01*
X93825000Y-137915000D02*
X93400000Y-137915000D01*
%TA.AperFunction,Conductor*%
G36*
X84865931Y-119960002D02*
G01*
X84886899Y-119976899D01*
X85213097Y-120303097D01*
X85247120Y-120365406D01*
X85250000Y-120392189D01*
X85250000Y-123750000D01*
X86281109Y-124867671D01*
X86312598Y-124931302D01*
X86314499Y-124953107D01*
X86314500Y-125100635D01*
X86314500Y-126321505D01*
X86313960Y-126329737D01*
X86309318Y-126364999D01*
X86309318Y-126365000D01*
X86314500Y-126404361D01*
X86329955Y-126521760D01*
X86368784Y-126615500D01*
X86390464Y-126667841D01*
X86486718Y-126793282D01*
X86500204Y-126803630D01*
X86542071Y-126860968D01*
X86549500Y-126903591D01*
X86549500Y-127469748D01*
X86561133Y-127528231D01*
X86605448Y-127594552D01*
X86671769Y-127638867D01*
X86730252Y-127650500D01*
X86730253Y-127650500D01*
X88269747Y-127650500D01*
X88269748Y-127650500D01*
X88328231Y-127638867D01*
X88394552Y-127594552D01*
X88438867Y-127528231D01*
X88443196Y-127506463D01*
X88476104Y-127443553D01*
X88537798Y-127408420D01*
X88608693Y-127412220D01*
X88659385Y-127445606D01*
X88848410Y-127650500D01*
X89028771Y-127846002D01*
X89028772Y-127846002D01*
X89300000Y-128140000D01*
X97947810Y-128140000D01*
X98015931Y-128160002D01*
X98036905Y-128176905D01*
X98363095Y-128503095D01*
X98397121Y-128565407D01*
X98400000Y-128592190D01*
X98400000Y-129104921D01*
X98398718Y-129122851D01*
X98394500Y-129152191D01*
X98394500Y-130493308D01*
X98374498Y-130561429D01*
X98357595Y-130582403D01*
X98180712Y-130759286D01*
X98118400Y-130793312D01*
X98047585Y-130788247D01*
X98030107Y-130780157D01*
X98000013Y-130763323D01*
X97931908Y-130743327D01*
X97931899Y-130743325D01*
X97931896Y-130743324D01*
X97874000Y-130735000D01*
X97873997Y-130735000D01*
X97845608Y-130735000D01*
X97790259Y-130722192D01*
X97783455Y-130718865D01*
X97749709Y-130694768D01*
X97745228Y-130690287D01*
X97721124Y-130656526D01*
X97717801Y-130649728D01*
X97705000Y-130594394D01*
X97705000Y-129666005D01*
X97704999Y-129665993D01*
X97700304Y-129622319D01*
X97688918Y-129569977D01*
X97686430Y-129559797D01*
X97643421Y-129479084D01*
X97602267Y-129431589D01*
X97596931Y-129425431D01*
X97596932Y-129425432D01*
X97579333Y-129407471D01*
X97499513Y-129362823D01*
X97431408Y-129342827D01*
X97431399Y-129342825D01*
X97431396Y-129342824D01*
X97373500Y-129334500D01*
X91446687Y-129334500D01*
X91446684Y-129334500D01*
X91443854Y-129334651D01*
X91435698Y-129335089D01*
X91435689Y-129335089D01*
X91435688Y-129335090D01*
X91435687Y-129335090D01*
X91403448Y-129338555D01*
X91403445Y-129338555D01*
X91403444Y-129338556D01*
X91389804Y-129342827D01*
X91326918Y-129362517D01*
X91264603Y-129396545D01*
X91217791Y-129431589D01*
X91217776Y-129431602D01*
X91067691Y-129581689D01*
X91059063Y-129590954D01*
X91059059Y-129590958D01*
X91022539Y-129645614D01*
X90993043Y-129710199D01*
X90993043Y-129710198D01*
X90984018Y-129733661D01*
X90976649Y-129823771D01*
X90951161Y-129890034D01*
X90893894Y-129931999D01*
X90851068Y-129939500D01*
X90643494Y-129939500D01*
X90635262Y-129938960D01*
X90600001Y-129934318D01*
X90599999Y-129934318D01*
X90564738Y-129938960D01*
X90556506Y-129939500D01*
X89752600Y-129939500D01*
X89695397Y-129925767D01*
X89683496Y-129919703D01*
X89606126Y-129880281D01*
X89506488Y-129864500D01*
X88989512Y-129864500D01*
X88889874Y-129880281D01*
X88889872Y-129880281D01*
X88889872Y-129880282D01*
X88769780Y-129941471D01*
X88674471Y-130036780D01*
X88640995Y-130102482D01*
X88613281Y-130156874D01*
X88597500Y-130256512D01*
X88597500Y-130823488D01*
X88613281Y-130923126D01*
X88674472Y-131043220D01*
X88769780Y-131138528D01*
X88889874Y-131199719D01*
X88893706Y-131200325D01*
X88897987Y-131202355D01*
X88899301Y-131202782D01*
X88899245Y-131202951D01*
X88957857Y-131230732D01*
X88995388Y-131290997D01*
X89000000Y-131324774D01*
X89000000Y-132487810D01*
X88979998Y-132555931D01*
X88963095Y-132576905D01*
X88636905Y-132903095D01*
X88574593Y-132937121D01*
X88547810Y-132940000D01*
X87252190Y-132940000D01*
X87184069Y-132919998D01*
X87163099Y-132903099D01*
X86836904Y-132576904D01*
X86802879Y-132514592D01*
X86800000Y-132487809D01*
X86800000Y-131339999D01*
X86800000Y-130940000D01*
X86505629Y-130669179D01*
X86505628Y-130669176D01*
X82113823Y-126628717D01*
X82083752Y-126586621D01*
X81810620Y-125964201D01*
X81800000Y-125913570D01*
X81800000Y-120392190D01*
X81820002Y-120324069D01*
X81836905Y-120303095D01*
X82163095Y-119976905D01*
X82225407Y-119942879D01*
X82252190Y-119940000D01*
X84797810Y-119940000D01*
X84865931Y-119960002D01*
G37*
%TD.AperFunction*%
%TA.AperFunction,Conductor*%
G36*
X95500127Y-131796549D02*
G01*
X95516303Y-131799110D01*
X95553789Y-131811290D01*
X95573270Y-131821216D01*
X95605159Y-131844386D01*
X95620610Y-131859837D01*
X95643782Y-131891729D01*
X95653706Y-131911206D01*
X95665887Y-131948694D01*
X95668447Y-131964854D01*
X95669999Y-131984569D01*
X95669999Y-132395428D01*
X95668447Y-132415143D01*
X95665887Y-132431303D01*
X95653707Y-132468789D01*
X95643785Y-132488263D01*
X95620614Y-132520156D01*
X95558583Y-132582188D01*
X95549955Y-132591454D01*
X95549948Y-132591463D01*
X95513435Y-132646110D01*
X95513433Y-132646112D01*
X95483936Y-132710698D01*
X95483936Y-132710699D01*
X95474911Y-132734162D01*
X95467457Y-132825314D01*
X95474269Y-132872691D01*
X95477561Y-132895589D01*
X95482652Y-132920201D01*
X95525663Y-133000918D01*
X95572152Y-133054569D01*
X95572151Y-133054568D01*
X95589749Y-133072528D01*
X95669569Y-133117176D01*
X95720815Y-133132222D01*
X95737687Y-133137176D01*
X95795583Y-133145500D01*
X96668500Y-133145500D01*
X96736621Y-133165502D01*
X96783114Y-133219158D01*
X96794500Y-133271500D01*
X96794500Y-133608180D01*
X96795191Y-133620085D01*
X96795191Y-133620087D01*
X96799259Y-133654988D01*
X96807036Y-133678705D01*
X96824800Y-133732882D01*
X96850292Y-133777649D01*
X96859929Y-133794575D01*
X96873676Y-133815613D01*
X96873678Y-133815615D01*
X96873680Y-133815618D01*
X96943252Y-133874979D01*
X96944535Y-133875846D01*
X96945175Y-133876620D01*
X96948636Y-133879573D01*
X96948118Y-133880179D01*
X96989784Y-133930554D01*
X97000000Y-133980253D01*
X97000000Y-135428456D01*
X96979998Y-135496577D01*
X96926342Y-135543070D01*
X96922219Y-135544864D01*
X96819772Y-135587299D01*
X96819760Y-135587306D01*
X96699548Y-135679548D01*
X96607306Y-135799760D01*
X96607301Y-135799768D01*
X96549312Y-135939765D01*
X96529534Y-136089999D01*
X96529534Y-136090000D01*
X96549312Y-136240234D01*
X96607301Y-136380231D01*
X96607306Y-136380239D01*
X96699548Y-136500451D01*
X96819760Y-136592693D01*
X96819767Y-136592698D01*
X96922220Y-136635135D01*
X96977499Y-136679682D01*
X96999920Y-136747046D01*
X97000000Y-136751543D01*
X97000000Y-140287810D01*
X96979998Y-140355931D01*
X96963095Y-140376905D01*
X96636905Y-140703095D01*
X96574593Y-140737121D01*
X96547810Y-140740000D01*
X92252190Y-140740000D01*
X92184069Y-140719998D01*
X92163095Y-140703095D01*
X91836905Y-140376905D01*
X91802879Y-140314593D01*
X91800000Y-140287810D01*
X91800000Y-136863980D01*
X91820002Y-136795859D01*
X91873658Y-136749366D01*
X91943929Y-136739262D01*
X91986740Y-136745500D01*
X91986745Y-136745500D01*
X93693020Y-136745500D01*
X93761141Y-136765502D01*
X93807634Y-136819158D01*
X93819020Y-136871500D01*
X93819020Y-137160974D01*
X93799018Y-137229095D01*
X93782115Y-137250069D01*
X93754589Y-137277595D01*
X93692277Y-137311621D01*
X93665494Y-137314500D01*
X93093483Y-137314500D01*
X92999697Y-137329353D01*
X92886657Y-137386949D01*
X92796949Y-137476657D01*
X92752988Y-137562937D01*
X92739354Y-137589696D01*
X92727774Y-137662811D01*
X92724500Y-137683484D01*
X92724500Y-138146516D01*
X92739353Y-138240302D01*
X92796949Y-138353342D01*
X92886657Y-138443050D01*
X92925299Y-138462738D01*
X92999696Y-138500646D01*
X93093481Y-138515500D01*
X93706518Y-138515499D01*
X93800304Y-138500646D01*
X93913342Y-138443050D01*
X93930712Y-138425679D01*
X93967461Y-138400162D01*
X94014611Y-138378629D01*
X94018749Y-138376915D01*
X94067331Y-138358796D01*
X94071017Y-138356036D01*
X94094183Y-138342289D01*
X94098373Y-138340377D01*
X94137547Y-138306432D01*
X94141045Y-138303613D01*
X94153593Y-138294221D01*
X94164686Y-138283126D01*
X94167951Y-138280086D01*
X94207143Y-138246128D01*
X94209631Y-138242256D01*
X94226534Y-138221278D01*
X94625798Y-137822014D01*
X94646776Y-137805111D01*
X94650648Y-137802623D01*
X94684606Y-137763431D01*
X94687646Y-137760166D01*
X94698741Y-137749073D01*
X94708133Y-137736525D01*
X94710952Y-137733027D01*
X94716368Y-137726776D01*
X94744897Y-137693853D01*
X94746809Y-137689663D01*
X94760556Y-137666497D01*
X94763316Y-137662811D01*
X94781438Y-137614219D01*
X94783136Y-137610120D01*
X94804685Y-137562937D01*
X94805339Y-137558381D01*
X94812003Y-137532271D01*
X94813611Y-137527963D01*
X94817309Y-137476250D01*
X94817785Y-137471818D01*
X94820020Y-137456279D01*
X94820020Y-137440610D01*
X94820181Y-137436114D01*
X94821337Y-137419932D01*
X94823879Y-137384407D01*
X94822899Y-137379900D01*
X94820020Y-137353120D01*
X94820020Y-135526877D01*
X94822899Y-135500096D01*
X94823879Y-135495593D01*
X94821732Y-135465573D01*
X94820181Y-135443883D01*
X94820020Y-135439387D01*
X94820020Y-135423721D01*
X94820020Y-135423720D01*
X94817784Y-135408177D01*
X94817308Y-135403736D01*
X94813611Y-135352040D01*
X94813611Y-135352037D01*
X94812001Y-135347722D01*
X94805341Y-135321627D01*
X94804685Y-135317063D01*
X94783144Y-135269896D01*
X94781430Y-135265757D01*
X94763318Y-135217192D01*
X94763316Y-135217189D01*
X94760551Y-135213495D01*
X94746809Y-135190334D01*
X94744897Y-135186147D01*
X94710955Y-135146976D01*
X94708140Y-135143483D01*
X94698741Y-135130927D01*
X94687651Y-135119837D01*
X94684598Y-135116558D01*
X94650647Y-135077376D01*
X94646766Y-135074882D01*
X94625795Y-135057981D01*
X94236537Y-134668723D01*
X94219635Y-134647751D01*
X94217143Y-134643872D01*
X94177959Y-134609919D01*
X94174679Y-134606865D01*
X94163593Y-134595779D01*
X94151036Y-134586379D01*
X94147544Y-134583565D01*
X94108373Y-134549623D01*
X94108371Y-134549622D01*
X94108370Y-134549621D01*
X94108367Y-134549619D01*
X94104178Y-134547706D01*
X94081024Y-134533968D01*
X94077332Y-134531205D01*
X94077331Y-134531204D01*
X94055291Y-134522983D01*
X94028757Y-134513086D01*
X94024603Y-134511365D01*
X93977462Y-134489836D01*
X93977455Y-134489834D01*
X93972883Y-134489177D01*
X93946808Y-134482521D01*
X93942488Y-134480910D01*
X93942480Y-134480908D01*
X93890778Y-134477209D01*
X93886311Y-134476729D01*
X93870799Y-134474500D01*
X93855130Y-134474500D01*
X93850634Y-134474339D01*
X93798927Y-134470641D01*
X93798926Y-134470641D01*
X93794427Y-134471620D01*
X93767642Y-134474500D01*
X91986738Y-134474500D01*
X91944166Y-134480703D01*
X91873873Y-134470731D01*
X91820130Y-134424339D01*
X91800000Y-134356255D01*
X91800000Y-133271500D01*
X91820002Y-133203379D01*
X91873658Y-133156886D01*
X91926000Y-133145500D01*
X94608085Y-133145500D01*
X94620740Y-133145048D01*
X94685222Y-133132222D01*
X94733671Y-133114150D01*
X94751743Y-133107411D01*
X94751742Y-133107411D01*
X94774712Y-133097203D01*
X94844437Y-133038020D01*
X94844438Y-133038019D01*
X94886977Y-132981194D01*
X94886978Y-132981193D01*
X94886984Y-132981184D01*
X94900789Y-132960177D01*
X94927449Y-132872693D01*
X94932514Y-132801878D01*
X94932771Y-132776738D01*
X94907900Y-132688729D01*
X94873874Y-132626417D01*
X94873872Y-132626414D01*
X94838827Y-132579601D01*
X94838820Y-132579593D01*
X94838819Y-132579592D01*
X94779383Y-132520156D01*
X94756216Y-132488270D01*
X94746289Y-132468787D01*
X94734109Y-132431298D01*
X94731549Y-132415131D01*
X94730000Y-132395433D01*
X94730000Y-131984570D01*
X94731550Y-131964865D01*
X94731552Y-131964854D01*
X94734110Y-131948697D01*
X94746289Y-131911212D01*
X94756220Y-131891722D01*
X94779385Y-131859839D01*
X94794841Y-131844383D01*
X94826724Y-131821218D01*
X94846212Y-131811288D01*
X94883699Y-131799109D01*
X94899867Y-131796549D01*
X94919565Y-131795000D01*
X95480430Y-131795000D01*
X95500127Y-131796549D01*
G37*
%TD.AperFunction*%
%TA.AperFunction,Conductor*%
G36*
X116863354Y-119554432D02*
G01*
X116949775Y-119599790D01*
X116949776Y-119599790D01*
X116949778Y-119599791D01*
X117106461Y-119638409D01*
X117114944Y-119640500D01*
X117114947Y-119640500D01*
X117285053Y-119640500D01*
X117285056Y-119640500D01*
X117450225Y-119599790D01*
X117536645Y-119554432D01*
X117595200Y-119540000D01*
X117747810Y-119540000D01*
X117815931Y-119560002D01*
X117836905Y-119576905D01*
X118163095Y-119903095D01*
X118197121Y-119965407D01*
X118200000Y-119992190D01*
X118200000Y-132587809D01*
X118179998Y-132655930D01*
X118163096Y-132676904D01*
X117836903Y-133003096D01*
X117774593Y-133037120D01*
X117747810Y-133040000D01*
X112978216Y-133040000D01*
X112910095Y-133019998D01*
X112863602Y-132966342D01*
X112853498Y-132896068D01*
X112873842Y-132846477D01*
X112873380Y-132846233D01*
X112875892Y-132841478D01*
X112876836Y-132839179D01*
X112877058Y-132838876D01*
X112877793Y-132837882D01*
X112922646Y-132709698D01*
X112925500Y-132679265D01*
X112925499Y-131320736D01*
X112922646Y-131290302D01*
X112877793Y-131162118D01*
X112877791Y-131162114D01*
X112797150Y-131052849D01*
X112687885Y-130972208D01*
X112687881Y-130972206D01*
X112559703Y-130927355D01*
X112559699Y-130927354D01*
X112549553Y-130926402D01*
X112529265Y-130924500D01*
X112529263Y-130924500D01*
X111495743Y-130924500D01*
X111495728Y-130924501D01*
X111471388Y-130926783D01*
X111465302Y-130927354D01*
X111465298Y-130927355D01*
X111465295Y-130927356D01*
X111337118Y-130972206D01*
X111337114Y-130972208D01*
X111227849Y-131052849D01*
X111147208Y-131162114D01*
X111147206Y-131162118D01*
X111102355Y-131290296D01*
X111102354Y-131290300D01*
X111099500Y-131320734D01*
X111099500Y-131373500D01*
X111079498Y-131441621D01*
X111025842Y-131488114D01*
X110973500Y-131499500D01*
X110476936Y-131499500D01*
X110408815Y-131479498D01*
X110404175Y-131476235D01*
X110402839Y-131475463D01*
X110256760Y-131414955D01*
X110100000Y-131394318D01*
X109943239Y-131414955D01*
X109797160Y-131475463D01*
X109790005Y-131479595D01*
X109788368Y-131476760D01*
X109736429Y-131496814D01*
X109666886Y-131482518D01*
X109616112Y-131432895D01*
X109600000Y-131371246D01*
X109600000Y-129192190D01*
X109620002Y-129124069D01*
X109636905Y-129103095D01*
X109963095Y-128776905D01*
X110025407Y-128742879D01*
X110052190Y-128740000D01*
X110539995Y-128740000D01*
X110608116Y-128760002D01*
X110629090Y-128776904D01*
X111387595Y-129535408D01*
X111421620Y-129597721D01*
X111424500Y-129624503D01*
X111424500Y-129771516D01*
X111439353Y-129865302D01*
X111496949Y-129978342D01*
X111586657Y-130068050D01*
X111625299Y-130087738D01*
X111699696Y-130125646D01*
X111793481Y-130140500D01*
X112256518Y-130140499D01*
X112350304Y-130125646D01*
X112463342Y-130068050D01*
X112467864Y-130063528D01*
X112528988Y-130002405D01*
X112591300Y-129968379D01*
X112618083Y-129965500D01*
X113121561Y-129965500D01*
X113189682Y-129985502D01*
X113210656Y-130002404D01*
X113271780Y-130063528D01*
X113391874Y-130124719D01*
X113491512Y-130140500D01*
X113491515Y-130140500D01*
X114008485Y-130140500D01*
X114008488Y-130140500D01*
X114108126Y-130124719D01*
X114228220Y-130063528D01*
X114323528Y-129968220D01*
X114384719Y-129848126D01*
X114400500Y-129748488D01*
X114400500Y-129181512D01*
X114384719Y-129081874D01*
X114323528Y-128961780D01*
X114316843Y-128955095D01*
X114282817Y-128892783D01*
X114287882Y-128821968D01*
X114330429Y-128765132D01*
X114396949Y-128740321D01*
X114405938Y-128740000D01*
X114600000Y-128740000D01*
X115000000Y-128740000D01*
X115000000Y-119992190D01*
X115020002Y-119924069D01*
X115036905Y-119903095D01*
X115363095Y-119576905D01*
X115425407Y-119542879D01*
X115452190Y-119540000D01*
X116804800Y-119540000D01*
X116863354Y-119554432D01*
G37*
%TD.AperFunction*%
%TA.AperFunction,Conductor*%
G36*
X97441621Y-129560002D02*
G01*
X97488114Y-129613658D01*
X97499500Y-129666000D01*
X97499500Y-130623261D01*
X97509427Y-130691394D01*
X97560801Y-130796482D01*
X97560803Y-130796485D01*
X97643514Y-130879196D01*
X97643517Y-130879198D01*
X97748607Y-130930573D01*
X97816740Y-130940500D01*
X97816745Y-130940500D01*
X97874000Y-130940500D01*
X97942121Y-130960502D01*
X97988614Y-131014158D01*
X98000000Y-131066500D01*
X97999999Y-133678705D01*
X97979997Y-133746826D01*
X97963100Y-133767795D01*
X97955451Y-133775443D01*
X97911132Y-133841771D01*
X97899500Y-133900249D01*
X97899500Y-135388308D01*
X97879498Y-135456429D01*
X97862595Y-135477403D01*
X97677800Y-135662198D01*
X97615488Y-135696224D01*
X97544673Y-135691159D01*
X97512001Y-135673065D01*
X97400239Y-135587306D01*
X97400235Y-135587304D01*
X97400233Y-135587302D01*
X97400230Y-135587300D01*
X97400227Y-135587299D01*
X97321126Y-135554534D01*
X97265845Y-135509986D01*
X97243425Y-135442622D01*
X97245767Y-135413541D01*
X97250499Y-135389753D01*
X97250500Y-135389748D01*
X97250500Y-133900252D01*
X97238867Y-133841769D01*
X97194552Y-133775448D01*
X97128231Y-133731133D01*
X97128228Y-133731132D01*
X97101417Y-133725799D01*
X97038508Y-133692890D01*
X97003377Y-133631195D01*
X97000000Y-133602220D01*
X97000000Y-133339999D01*
X97000000Y-132940000D01*
X96600001Y-132940000D01*
X95795583Y-132940000D01*
X95727462Y-132919998D01*
X95680969Y-132866342D01*
X95670865Y-132796068D01*
X95700359Y-132731488D01*
X95706488Y-132724905D01*
X95803048Y-132628344D01*
X95803050Y-132628342D01*
X95807556Y-132619498D01*
X95860646Y-132515304D01*
X95875500Y-132421519D01*
X95875499Y-131958482D01*
X95860646Y-131864696D01*
X95831848Y-131808177D01*
X95803050Y-131751657D01*
X95713342Y-131661949D01*
X95637502Y-131623307D01*
X95600304Y-131604354D01*
X95506519Y-131589500D01*
X95506515Y-131589500D01*
X94893483Y-131589500D01*
X94799697Y-131604353D01*
X94686657Y-131661949D01*
X94596949Y-131751657D01*
X94539355Y-131864694D01*
X94539354Y-131864696D01*
X94524500Y-131958481D01*
X94524500Y-131958484D01*
X94524500Y-132421516D01*
X94539353Y-132515302D01*
X94596949Y-132628342D01*
X94693512Y-132724905D01*
X94727538Y-132787217D01*
X94722473Y-132858032D01*
X94679926Y-132914868D01*
X94613406Y-132939679D01*
X94604417Y-132940000D01*
X91841494Y-132940000D01*
X91773373Y-132919998D01*
X91726880Y-132866342D01*
X91716100Y-132826347D01*
X91715500Y-132820258D01*
X91715500Y-132820252D01*
X91703867Y-132761769D01*
X91659552Y-132695448D01*
X91593231Y-132651133D01*
X91593228Y-132651132D01*
X91534750Y-132639500D01*
X91534748Y-132639500D01*
X91151690Y-132639500D01*
X91083569Y-132619498D01*
X91062595Y-132602595D01*
X91036905Y-132576905D01*
X91002879Y-132514593D01*
X91000000Y-132487810D01*
X91000000Y-131266500D01*
X91020002Y-131198379D01*
X91073658Y-131151886D01*
X91126000Y-131140500D01*
X91320400Y-131140500D01*
X91377602Y-131154232D01*
X91466874Y-131199719D01*
X91566512Y-131215500D01*
X91566515Y-131215500D01*
X92083485Y-131215500D01*
X92083488Y-131215500D01*
X92183126Y-131199719D01*
X92303220Y-131138528D01*
X92398528Y-131043220D01*
X92459719Y-130923126D01*
X92475500Y-130823488D01*
X92475500Y-130256512D01*
X92459719Y-130156874D01*
X92398528Y-130036780D01*
X92303220Y-129941472D01*
X92303219Y-129941471D01*
X92243172Y-129910876D01*
X92183126Y-129880281D01*
X92083488Y-129864500D01*
X91566512Y-129864500D01*
X91466874Y-129880281D01*
X91389907Y-129919498D01*
X91377603Y-129925767D01*
X91320400Y-129939500D01*
X91304690Y-129939500D01*
X91236569Y-129919498D01*
X91190076Y-129865842D01*
X91179972Y-129795568D01*
X91209466Y-129730988D01*
X91215595Y-129724405D01*
X91363095Y-129576905D01*
X91425407Y-129542879D01*
X91452190Y-129540000D01*
X97373500Y-129540000D01*
X97441621Y-129560002D01*
G37*
%TD.AperFunction*%
%TA.AperFunction,Conductor*%
G36*
X111227352Y-120154241D02*
G01*
X111802033Y-120453452D01*
X111847069Y-120492955D01*
X112620865Y-121598379D01*
X112759372Y-121796245D01*
X112776446Y-121831023D01*
X112991491Y-122521274D01*
X112997191Y-122559595D01*
X112992311Y-123288769D01*
X112971854Y-123356755D01*
X112955731Y-123376698D01*
X112625566Y-123709247D01*
X112563378Y-123743496D01*
X112537902Y-123746461D01*
X112253250Y-123750414D01*
X112184858Y-123731360D01*
X112137624Y-123678355D01*
X112125500Y-123624426D01*
X112125500Y-122215253D01*
X112125499Y-122215249D01*
X112116756Y-122171296D01*
X112113867Y-122156769D01*
X112069552Y-122090448D01*
X112003231Y-122046133D01*
X112003228Y-122046132D01*
X111944750Y-122034500D01*
X111944748Y-122034500D01*
X111255252Y-122034500D01*
X111255249Y-122034500D01*
X111196771Y-122046132D01*
X111196767Y-122046134D01*
X111194997Y-122047317D01*
X111190554Y-122048707D01*
X111185306Y-122050882D01*
X111185111Y-122050411D01*
X111127244Y-122068529D01*
X111058777Y-122049744D01*
X111055018Y-122047327D01*
X111053231Y-122046133D01*
X111053229Y-122046132D01*
X111053228Y-122046132D01*
X110994750Y-122034500D01*
X110994748Y-122034500D01*
X110305252Y-122034500D01*
X110305249Y-122034500D01*
X110246771Y-122046132D01*
X110246768Y-122046133D01*
X110180448Y-122090448D01*
X110136133Y-122156768D01*
X110136132Y-122156771D01*
X110124500Y-122215249D01*
X110124500Y-122388500D01*
X110104498Y-122456621D01*
X110050842Y-122503114D01*
X109998500Y-122514500D01*
X109646485Y-122514500D01*
X109578364Y-122494498D01*
X109569789Y-122488469D01*
X109552841Y-122475464D01*
X109406762Y-122414956D01*
X109406760Y-122414955D01*
X109250000Y-122394318D01*
X109093239Y-122414955D01*
X108947160Y-122475463D01*
X108947157Y-122475465D01*
X108821718Y-122571718D01*
X108725465Y-122697157D01*
X108725463Y-122697160D01*
X108664955Y-122843239D01*
X108644318Y-122999999D01*
X108644318Y-123000000D01*
X108664955Y-123156760D01*
X108664956Y-123156762D01*
X108725464Y-123302841D01*
X108821718Y-123428282D01*
X108947159Y-123524536D01*
X109093238Y-123585044D01*
X109171619Y-123595362D01*
X109249999Y-123605682D01*
X109249999Y-123605681D01*
X109250000Y-123605682D01*
X109406762Y-123585044D01*
X109551502Y-123525090D01*
X109599718Y-123515500D01*
X109998500Y-123515500D01*
X110066621Y-123535502D01*
X110113114Y-123589158D01*
X110124500Y-123641499D01*
X110124500Y-123814748D01*
X110136133Y-123873231D01*
X110180448Y-123939552D01*
X110246769Y-123983867D01*
X110305252Y-123995500D01*
X110305253Y-123995500D01*
X110904148Y-123995500D01*
X110972269Y-124015502D01*
X111018762Y-124069158D01*
X111028866Y-124139432D01*
X111020557Y-124169715D01*
X111017605Y-124176841D01*
X111014955Y-124183239D01*
X110994318Y-124339999D01*
X110994318Y-124340000D01*
X111014955Y-124496760D01*
X111014956Y-124496762D01*
X111075464Y-124642841D01*
X111167309Y-124762537D01*
X111192909Y-124828755D01*
X111193345Y-124838763D01*
X111198291Y-126147672D01*
X111178547Y-126215868D01*
X111161556Y-126237075D01*
X110836933Y-126562927D01*
X110774685Y-126597070D01*
X110747669Y-126600000D01*
X108600000Y-126600000D01*
X108600000Y-126999997D01*
X108600000Y-126999998D01*
X108599999Y-127000000D01*
X108599999Y-127887993D01*
X108579997Y-127956114D01*
X108563317Y-127976865D01*
X108335968Y-128205354D01*
X108236685Y-128305134D01*
X108174460Y-128339315D01*
X108148007Y-128342259D01*
X107642783Y-128344786D01*
X107052369Y-128347738D01*
X106984149Y-128328077D01*
X106962875Y-128311065D01*
X106637126Y-127986941D01*
X106602947Y-127924715D01*
X106600000Y-127897624D01*
X106600000Y-124792189D01*
X106620002Y-124724068D01*
X106636896Y-124703103D01*
X106963097Y-124376902D01*
X107025407Y-124342879D01*
X107052190Y-124340000D01*
X107600000Y-124340000D01*
X108000000Y-124340000D01*
X108000000Y-121666500D01*
X108020002Y-121598379D01*
X108073658Y-121551886D01*
X108126000Y-121540500D01*
X109294954Y-121540500D01*
X109429255Y-121525368D01*
X109599522Y-121465789D01*
X109752262Y-121369816D01*
X109879816Y-121242262D01*
X109975789Y-121089522D01*
X110035368Y-120919255D01*
X110055565Y-120740000D01*
X110035368Y-120560745D01*
X109975789Y-120390478D01*
X109964946Y-120373222D01*
X109939696Y-120333035D01*
X109920391Y-120264714D01*
X109941087Y-120196801D01*
X109995214Y-120150858D01*
X110046384Y-120140000D01*
X111169164Y-120140000D01*
X111227352Y-120154241D01*
G37*
%TD.AperFunction*%
%TA.AperFunction,Conductor*%
G36*
X93711201Y-118160002D02*
G01*
X93757694Y-118213658D01*
X93767798Y-118283932D01*
X93738304Y-118348512D01*
X93721984Y-118367345D01*
X93704925Y-118387032D01*
X93701866Y-118390318D01*
X93690776Y-118401409D01*
X93690775Y-118401411D01*
X93681384Y-118413955D01*
X93678564Y-118417454D01*
X93644623Y-118456625D01*
X93642709Y-118460818D01*
X93628969Y-118483975D01*
X93626202Y-118487670D01*
X93608090Y-118536234D01*
X93606369Y-118540389D01*
X93584834Y-118587544D01*
X93584833Y-118587548D01*
X93584176Y-118592117D01*
X93577523Y-118618186D01*
X93575909Y-118622512D01*
X93575909Y-118622516D01*
X93572209Y-118674223D01*
X93571729Y-118678690D01*
X93569500Y-118694201D01*
X93569500Y-118709867D01*
X93569339Y-118714363D01*
X93565641Y-118766070D01*
X93565641Y-118766073D01*
X93566620Y-118770576D01*
X93569500Y-118797357D01*
X93569500Y-120523261D01*
X93579427Y-120591394D01*
X93630801Y-120696482D01*
X93630803Y-120696485D01*
X93713514Y-120779196D01*
X93713517Y-120779198D01*
X93818607Y-120830573D01*
X93886740Y-120840500D01*
X93886745Y-120840500D01*
X94253255Y-120840500D01*
X94253260Y-120840500D01*
X94321393Y-120830573D01*
X94426483Y-120779198D01*
X94509198Y-120696483D01*
X94560573Y-120591393D01*
X94570500Y-120523260D01*
X94570500Y-118989503D01*
X94590502Y-118921383D01*
X94607405Y-118900408D01*
X95330910Y-118176904D01*
X95393222Y-118142879D01*
X95420005Y-118140000D01*
X103547810Y-118140000D01*
X103615931Y-118160002D01*
X103636905Y-118176905D01*
X103963095Y-118503095D01*
X103997121Y-118565407D01*
X104000000Y-118592190D01*
X104000000Y-119281298D01*
X103979998Y-119349419D01*
X103926342Y-119395912D01*
X103856068Y-119406016D01*
X103843847Y-119403637D01*
X103685059Y-119364500D01*
X103685056Y-119364500D01*
X103514944Y-119364500D01*
X103514940Y-119364500D01*
X103349767Y-119405211D01*
X103343701Y-119407512D01*
X103318739Y-119414147D01*
X103289106Y-119418840D01*
X103216874Y-119430281D01*
X103216872Y-119430281D01*
X103216872Y-119430282D01*
X103096780Y-119491471D01*
X103001471Y-119586780D01*
X102940282Y-119706872D01*
X102940281Y-119706874D01*
X102924500Y-119806512D01*
X102924500Y-119806515D01*
X102924500Y-119847619D01*
X102916312Y-119892299D01*
X102914859Y-119896128D01*
X102914858Y-119896133D01*
X102899041Y-120026407D01*
X102897881Y-120026266D01*
X102875488Y-120088391D01*
X102819125Y-120131562D01*
X102773792Y-120140000D01*
X99600000Y-120140000D01*
X99600000Y-120539998D01*
X99600000Y-126087810D01*
X99579998Y-126155931D01*
X99563095Y-126176905D01*
X99236905Y-126503095D01*
X99174593Y-126537121D01*
X99147810Y-126540000D01*
X98252190Y-126540000D01*
X98184069Y-126519998D01*
X98163095Y-126503095D01*
X97836905Y-126176905D01*
X97802879Y-126114593D01*
X97800000Y-126087810D01*
X97800000Y-123540000D01*
X97800000Y-123140000D01*
X97400001Y-123140000D01*
X92252190Y-123140000D01*
X92184069Y-123119998D01*
X92163095Y-123103095D01*
X91836904Y-122776904D01*
X91802878Y-122714592D01*
X91800000Y-122687818D01*
X91800000Y-120900126D01*
X91820001Y-120832009D01*
X91870664Y-120786931D01*
X91886483Y-120779198D01*
X91969198Y-120696483D01*
X92020573Y-120591393D01*
X92030500Y-120523260D01*
X92030500Y-120395131D01*
X92030661Y-120390634D01*
X92034359Y-120338926D01*
X92033380Y-120334429D01*
X92030499Y-120307637D01*
X92030499Y-119569054D01*
X92030500Y-118806740D01*
X92020573Y-118738607D01*
X91969198Y-118633517D01*
X91969196Y-118633514D01*
X91926936Y-118591254D01*
X91892910Y-118528942D01*
X91897975Y-118458127D01*
X91926934Y-118413065D01*
X92163096Y-118176904D01*
X92225408Y-118142879D01*
X92252191Y-118140000D01*
X93643080Y-118140000D01*
X93711201Y-118160002D01*
G37*
%TD.AperFunction*%
%TA.AperFunction,Conductor*%
G36*
X108515931Y-128720002D02*
G01*
X108536905Y-128736905D01*
X108863095Y-129063095D01*
X108897121Y-129125407D01*
X108900000Y-129152190D01*
X108900000Y-132147810D01*
X108879998Y-132215931D01*
X108863095Y-132236905D01*
X108536905Y-132563095D01*
X108474593Y-132597121D01*
X108447810Y-132600000D01*
X106760004Y-132600000D01*
X106691883Y-132579998D01*
X106670909Y-132563095D01*
X105541537Y-131433723D01*
X105524635Y-131412751D01*
X105522143Y-131408872D01*
X105482959Y-131374919D01*
X105479679Y-131371865D01*
X105468593Y-131360779D01*
X105456036Y-131351379D01*
X105452544Y-131348565D01*
X105413373Y-131314623D01*
X105413371Y-131314622D01*
X105413370Y-131314621D01*
X105413367Y-131314619D01*
X105409178Y-131312706D01*
X105386024Y-131298968D01*
X105382332Y-131296205D01*
X105382331Y-131296204D01*
X105360291Y-131287983D01*
X105333757Y-131278086D01*
X105329603Y-131276365D01*
X105282462Y-131254836D01*
X105282455Y-131254834D01*
X105277883Y-131254177D01*
X105251808Y-131247521D01*
X105247488Y-131245910D01*
X105247480Y-131245908D01*
X105195778Y-131242209D01*
X105191311Y-131241729D01*
X105175799Y-131239500D01*
X105160130Y-131239500D01*
X105155634Y-131239339D01*
X105103927Y-131235641D01*
X105103926Y-131235641D01*
X105099427Y-131236620D01*
X105072642Y-131239500D01*
X104676445Y-131239500D01*
X104608324Y-131219498D01*
X104561831Y-131165842D01*
X104551052Y-131125850D01*
X104550501Y-131120256D01*
X104538867Y-131061771D01*
X104538867Y-131061769D01*
X104494552Y-130995448D01*
X104428231Y-130951133D01*
X104428228Y-130951132D01*
X104369750Y-130939500D01*
X104369748Y-130939500D01*
X103430252Y-130939500D01*
X103430249Y-130939500D01*
X103371771Y-130951132D01*
X103371768Y-130951133D01*
X103305448Y-130995448D01*
X103261133Y-131061768D01*
X103261132Y-131061771D01*
X103249500Y-131120249D01*
X103249500Y-131630494D01*
X103229498Y-131698615D01*
X103212595Y-131719589D01*
X102369089Y-132563095D01*
X102306777Y-132597121D01*
X102279994Y-132600000D01*
X100100000Y-132600000D01*
X99052190Y-132600000D01*
X98984069Y-132579998D01*
X98963095Y-132563095D01*
X98636905Y-132236905D01*
X98602879Y-132174593D01*
X98600000Y-132147810D01*
X98600000Y-129152190D01*
X98620002Y-129084069D01*
X98636905Y-129063095D01*
X98963095Y-128736905D01*
X99025407Y-128702879D01*
X99052190Y-128700000D01*
X108447810Y-128700000D01*
X108515931Y-128720002D01*
G37*
%TD.AperFunction*%
M02*
