%TF.GenerationSoftware,KiCad,Pcbnew,7.0.6*%
%TF.CreationDate,2023-09-04T14:52:52+12:00*%
%TF.ProjectId,GBA_lipo,4742415f-6c69-4706-9f2e-6b696361645f,rev?*%
%TF.SameCoordinates,Original*%
%TF.FileFunction,Paste,Top*%
%TF.FilePolarity,Positive*%
%FSLAX46Y46*%
G04 Gerber Fmt 4.6, Leading zero omitted, Abs format (unit mm)*
G04 Created by KiCad (PCBNEW 7.0.6) date 2023-09-04 14:52:52*
%MOMM*%
%LPD*%
G01*
G04 APERTURE LIST*
G04 Aperture macros list*
%AMRoundRect*
0 Rectangle with rounded corners*
0 $1 Rounding radius*
0 $2 $3 $4 $5 $6 $7 $8 $9 X,Y pos of 4 corners*
0 Add a 4 corners polygon primitive as box body*
4,1,4,$2,$3,$4,$5,$6,$7,$8,$9,$2,$3,0*
0 Add four circle primitives for the rounded corners*
1,1,$1+$1,$2,$3*
1,1,$1+$1,$4,$5*
1,1,$1+$1,$6,$7*
1,1,$1+$1,$8,$9*
0 Add four rect primitives between the rounded corners*
20,1,$1+$1,$2,$3,$4,$5,0*
20,1,$1+$1,$4,$5,$6,$7,0*
20,1,$1+$1,$6,$7,$8,$9,0*
20,1,$1+$1,$8,$9,$2,$3,0*%
G04 Aperture macros list end*
%ADD10RoundRect,0.200000X0.275000X-0.200000X0.275000X0.200000X-0.275000X0.200000X-0.275000X-0.200000X0*%
%ADD11RoundRect,0.250001X-0.462499X-0.624999X0.462499X-0.624999X0.462499X0.624999X-0.462499X0.624999X0*%
%ADD12R,0.600000X1.450000*%
%ADD13R,0.300000X1.450000*%
%ADD14RoundRect,0.200000X0.200000X0.275000X-0.200000X0.275000X-0.200000X-0.275000X0.200000X-0.275000X0*%
%ADD15RoundRect,0.200000X-0.275000X0.200000X-0.275000X-0.200000X0.275000X-0.200000X0.275000X0.200000X0*%
%ADD16RoundRect,0.225000X-0.225000X-0.250000X0.225000X-0.250000X0.225000X0.250000X-0.225000X0.250000X0*%
%ADD17RoundRect,0.218750X-0.256250X0.218750X-0.256250X-0.218750X0.256250X-0.218750X0.256250X0.218750X0*%
%ADD18R,1.500000X2.000000*%
%ADD19R,3.800000X2.000000*%
%ADD20R,0.900000X1.200000*%
%ADD21RoundRect,0.200000X-0.200000X-0.275000X0.200000X-0.275000X0.200000X0.275000X-0.200000X0.275000X0*%
%ADD22R,1.200000X1.200000*%
%ADD23R,1.600000X1.500000*%
%ADD24R,0.650000X1.560000*%
%ADD25RoundRect,0.150000X-0.150000X0.587500X-0.150000X-0.587500X0.150000X-0.587500X0.150000X0.587500X0*%
%ADD26RoundRect,0.225000X0.225000X0.250000X-0.225000X0.250000X-0.225000X-0.250000X0.225000X-0.250000X0*%
%ADD27RoundRect,0.230000X0.230000X0.375000X-0.230000X0.375000X-0.230000X-0.375000X0.230000X-0.375000X0*%
%ADD28RoundRect,0.150000X0.825000X0.150000X-0.825000X0.150000X-0.825000X-0.150000X0.825000X-0.150000X0*%
%ADD29RoundRect,0.225000X0.250000X-0.225000X0.250000X0.225000X-0.250000X0.225000X-0.250000X-0.225000X0*%
%ADD30RoundRect,0.150000X0.150000X-0.587500X0.150000X0.587500X-0.150000X0.587500X-0.150000X-0.587500X0*%
%ADD31RoundRect,0.225000X-0.250000X0.225000X-0.250000X-0.225000X0.250000X-0.225000X0.250000X0.225000X0*%
%ADD32RoundRect,0.150000X-0.150000X0.825000X-0.150000X-0.825000X0.150000X-0.825000X0.150000X0.825000X0*%
G04 APERTURE END LIST*
D10*
X105700000Y-125125000D03*
X105700000Y-123475000D03*
D11*
X114987500Y-132000000D03*
X112012500Y-132000000D03*
D12*
X96750000Y-134645000D03*
X97550000Y-134645000D03*
D13*
X98750000Y-134645000D03*
X99750000Y-134645000D03*
X100250000Y-134645000D03*
X101250000Y-134645000D03*
D12*
X102450000Y-134645000D03*
X103250000Y-134645000D03*
X103250000Y-134645000D03*
X102450000Y-134645000D03*
D13*
X101750000Y-134645000D03*
X100750000Y-134645000D03*
X99250000Y-134645000D03*
X98250000Y-134645000D03*
D12*
X97550000Y-134645000D03*
X96750000Y-134645000D03*
D14*
X88565000Y-123340000D03*
X86915000Y-123340000D03*
D15*
X93400000Y-137915000D03*
X93400000Y-139565000D03*
D16*
X87698000Y-130540000D03*
X89248000Y-130540000D03*
D17*
X83200000Y-133940000D03*
X83200000Y-135515000D03*
D18*
X96700000Y-125415000D03*
X99000000Y-125415000D03*
D19*
X99000000Y-119115000D03*
D18*
X101300000Y-125415000D03*
D20*
X103900000Y-131740000D03*
X100600000Y-131740000D03*
D21*
X83175000Y-132187000D03*
X84825000Y-132187000D03*
D22*
X86365000Y-121540000D03*
D23*
X87365000Y-118290000D03*
D22*
X88365000Y-121540000D03*
D24*
X112550000Y-123015000D03*
X111600000Y-123015000D03*
X110650000Y-123015000D03*
X110650000Y-125715000D03*
X112550000Y-125715000D03*
D16*
X113750000Y-127740000D03*
X115300000Y-127740000D03*
D17*
X84800000Y-133940000D03*
X84800000Y-135515000D03*
D25*
X114200000Y-118802500D03*
X112300000Y-118802500D03*
X113250000Y-120677500D03*
D26*
X93375000Y-130540000D03*
X91825000Y-130540000D03*
D16*
X109050000Y-120740000D03*
X110600000Y-120740000D03*
D27*
X89800000Y-133590000D03*
X89800000Y-135090000D03*
X90940000Y-133590000D03*
X90940000Y-135090000D03*
D28*
X92845000Y-136245000D03*
X92845000Y-134975000D03*
X92845000Y-133705000D03*
X92845000Y-132435000D03*
X87895000Y-132435000D03*
X87895000Y-133705000D03*
X87895000Y-134975000D03*
X87895000Y-136245000D03*
D15*
X95200000Y-130540000D03*
X95200000Y-132190000D03*
D21*
X83175000Y-130409000D03*
X84825000Y-130409000D03*
X110375000Y-129465000D03*
X112025000Y-129465000D03*
D15*
X108400000Y-137915000D03*
X108400000Y-139565000D03*
X106600000Y-137940000D03*
X106600000Y-139590000D03*
D21*
X86915000Y-125140000D03*
X88565000Y-125140000D03*
X110375000Y-127740000D03*
X112025000Y-127740000D03*
D29*
X103600000Y-123525000D03*
X103600000Y-125075000D03*
D30*
X97050000Y-131877500D03*
X98950000Y-131877500D03*
X98000000Y-130002500D03*
D31*
X103600000Y-118515000D03*
X103600000Y-120065000D03*
D26*
X115300000Y-129465000D03*
X113750000Y-129465000D03*
D10*
X114300000Y-125165000D03*
X114300000Y-123515000D03*
D21*
X108950000Y-118565000D03*
X110600000Y-118565000D03*
D32*
X94070000Y-119665000D03*
X92800000Y-119665000D03*
X91530000Y-119665000D03*
X90260000Y-119665000D03*
X90260000Y-124615000D03*
X91530000Y-124615000D03*
X92800000Y-124615000D03*
X94070000Y-124615000D03*
M02*
