%TF.GenerationSoftware,KiCad,Pcbnew,7.0.6*%
%TF.CreationDate,2023-09-04T14:52:52+12:00*%
%TF.ProjectId,GBA_lipo,4742415f-6c69-4706-9f2e-6b696361645f,rev?*%
%TF.SameCoordinates,Original*%
%TF.FileFunction,Legend,Bot*%
%TF.FilePolarity,Positive*%
%FSLAX46Y46*%
G04 Gerber Fmt 4.6, Leading zero omitted, Abs format (unit mm)*
G04 Created by KiCad (PCBNEW 7.0.6) date 2023-09-04 14:52:52*
%MOMM*%
%LPD*%
G01*
G04 APERTURE LIST*
%ADD10C,0.250000*%
%ADD11R,1.000000X1.000000*%
%ADD12O,1.000000X1.000000*%
%ADD13C,0.650000*%
%ADD14O,1.000000X1.600000*%
%ADD15O,1.000000X2.100000*%
G04 APERTURE END LIST*
D10*
X117964098Y-116964619D02*
X118678384Y-116964619D01*
X118678384Y-116964619D02*
X118678384Y-115964619D01*
X117464098Y-116964619D02*
X117464098Y-115964619D01*
X116964097Y-115964619D02*
X116106955Y-115964619D01*
X116535526Y-116964619D02*
X116535526Y-115964619D01*
X115606955Y-116964619D02*
X115606955Y-115964619D01*
X115606955Y-116440809D02*
X114749812Y-116440809D01*
X114749812Y-116964619D02*
X114749812Y-115964619D01*
X114035526Y-116964619D02*
X114035526Y-115964619D01*
X113321240Y-115964619D02*
X113321240Y-116774142D01*
X113321240Y-116774142D02*
X113249811Y-116869380D01*
X113249811Y-116869380D02*
X113178383Y-116917000D01*
X113178383Y-116917000D02*
X113035525Y-116964619D01*
X113035525Y-116964619D02*
X112749811Y-116964619D01*
X112749811Y-116964619D02*
X112606954Y-116917000D01*
X112606954Y-116917000D02*
X112535525Y-116869380D01*
X112535525Y-116869380D02*
X112464097Y-116774142D01*
X112464097Y-116774142D02*
X112464097Y-115964619D01*
X111749811Y-116964619D02*
X111749811Y-115964619D01*
X111749811Y-115964619D02*
X111249811Y-116678904D01*
X111249811Y-116678904D02*
X110749811Y-115964619D01*
X110749811Y-115964619D02*
X110749811Y-116964619D01*
X108392668Y-116440809D02*
X108178382Y-116488428D01*
X108178382Y-116488428D02*
X108106953Y-116536047D01*
X108106953Y-116536047D02*
X108035525Y-116631285D01*
X108035525Y-116631285D02*
X108035525Y-116774142D01*
X108035525Y-116774142D02*
X108106953Y-116869380D01*
X108106953Y-116869380D02*
X108178382Y-116917000D01*
X108178382Y-116917000D02*
X108321239Y-116964619D01*
X108321239Y-116964619D02*
X108892668Y-116964619D01*
X108892668Y-116964619D02*
X108892668Y-115964619D01*
X108892668Y-115964619D02*
X108392668Y-115964619D01*
X108392668Y-115964619D02*
X108249811Y-116012238D01*
X108249811Y-116012238D02*
X108178382Y-116059857D01*
X108178382Y-116059857D02*
X108106953Y-116155095D01*
X108106953Y-116155095D02*
X108106953Y-116250333D01*
X108106953Y-116250333D02*
X108178382Y-116345571D01*
X108178382Y-116345571D02*
X108249811Y-116393190D01*
X108249811Y-116393190D02*
X108392668Y-116440809D01*
X108392668Y-116440809D02*
X108892668Y-116440809D01*
X107106953Y-115964619D02*
X106821239Y-115964619D01*
X106821239Y-115964619D02*
X106678382Y-116012238D01*
X106678382Y-116012238D02*
X106535525Y-116107476D01*
X106535525Y-116107476D02*
X106464096Y-116297952D01*
X106464096Y-116297952D02*
X106464096Y-116631285D01*
X106464096Y-116631285D02*
X106535525Y-116821761D01*
X106535525Y-116821761D02*
X106678382Y-116917000D01*
X106678382Y-116917000D02*
X106821239Y-116964619D01*
X106821239Y-116964619D02*
X107106953Y-116964619D01*
X107106953Y-116964619D02*
X107249811Y-116917000D01*
X107249811Y-116917000D02*
X107392668Y-116821761D01*
X107392668Y-116821761D02*
X107464096Y-116631285D01*
X107464096Y-116631285D02*
X107464096Y-116297952D01*
X107464096Y-116297952D02*
X107392668Y-116107476D01*
X107392668Y-116107476D02*
X107249811Y-116012238D01*
X107249811Y-116012238D02*
X107106953Y-115964619D01*
X105535524Y-116488428D02*
X105535524Y-116964619D01*
X106035524Y-115964619D02*
X105535524Y-116488428D01*
X105535524Y-116488428D02*
X105035524Y-115964619D01*
X103606953Y-115964619D02*
X103106953Y-116964619D01*
X103106953Y-116964619D02*
X102606953Y-115964619D01*
X101321239Y-116964619D02*
X102178382Y-116964619D01*
X101749811Y-116964619D02*
X101749811Y-115964619D01*
X101749811Y-115964619D02*
X101892668Y-116107476D01*
X101892668Y-116107476D02*
X102035525Y-116202714D01*
X102035525Y-116202714D02*
X102178382Y-116250333D01*
X100678383Y-116869380D02*
X100606954Y-116917000D01*
X100606954Y-116917000D02*
X100678383Y-116964619D01*
X100678383Y-116964619D02*
X100749811Y-116917000D01*
X100749811Y-116917000D02*
X100678383Y-116869380D01*
X100678383Y-116869380D02*
X100678383Y-116964619D01*
X99678382Y-115964619D02*
X99535525Y-115964619D01*
X99535525Y-115964619D02*
X99392668Y-116012238D01*
X99392668Y-116012238D02*
X99321240Y-116059857D01*
X99321240Y-116059857D02*
X99249811Y-116155095D01*
X99249811Y-116155095D02*
X99178382Y-116345571D01*
X99178382Y-116345571D02*
X99178382Y-116583666D01*
X99178382Y-116583666D02*
X99249811Y-116774142D01*
X99249811Y-116774142D02*
X99321240Y-116869380D01*
X99321240Y-116869380D02*
X99392668Y-116917000D01*
X99392668Y-116917000D02*
X99535525Y-116964619D01*
X99535525Y-116964619D02*
X99678382Y-116964619D01*
X99678382Y-116964619D02*
X99821240Y-116917000D01*
X99821240Y-116917000D02*
X99892668Y-116869380D01*
X99892668Y-116869380D02*
X99964097Y-116774142D01*
X99964097Y-116774142D02*
X100035525Y-116583666D01*
X100035525Y-116583666D02*
X100035525Y-116345571D01*
X100035525Y-116345571D02*
X99964097Y-116155095D01*
X99964097Y-116155095D02*
X99892668Y-116059857D01*
X99892668Y-116059857D02*
X99821240Y-116012238D01*
X99821240Y-116012238D02*
X99678382Y-115964619D01*
G36*
X103314248Y-125467196D02*
G01*
X103315607Y-125684680D01*
X103533091Y-125686039D01*
X103750574Y-125687399D01*
X103750574Y-127000000D01*
X103750574Y-128312601D01*
X103533091Y-128313960D01*
X103315607Y-128315320D01*
X103314248Y-128532803D01*
X103312888Y-128750287D01*
X100468729Y-128750287D01*
X97624569Y-128750287D01*
X97624569Y-128531501D01*
X97624569Y-128312715D01*
X97405784Y-128312715D01*
X97186998Y-128312715D01*
X97186998Y-128093929D01*
X97186998Y-127875143D01*
X96968212Y-127875143D01*
X96749426Y-127875143D01*
X96749426Y-127000000D01*
X96749426Y-126124856D01*
X96968212Y-126124856D01*
X97186998Y-126124856D01*
X97186998Y-125906070D01*
X97186998Y-125687285D01*
X97405784Y-125687285D01*
X97624569Y-125687285D01*
X97624569Y-126999995D01*
X97624569Y-128312715D01*
X100466345Y-128312715D01*
X100519058Y-128312715D01*
X100729217Y-128312709D01*
X100929233Y-128312694D01*
X101119327Y-128312670D01*
X101299719Y-128312636D01*
X101470630Y-128312592D01*
X101632281Y-128312537D01*
X101784894Y-128312471D01*
X101928689Y-128312394D01*
X102063888Y-128312304D01*
X102190711Y-128312201D01*
X102309379Y-128312085D01*
X102420114Y-128311955D01*
X102523136Y-128311811D01*
X102618666Y-128311653D01*
X102706926Y-128311479D01*
X102788136Y-128311289D01*
X102862517Y-128311083D01*
X102930290Y-128310860D01*
X102991677Y-128310620D01*
X103046898Y-128310362D01*
X103096174Y-128310085D01*
X103139727Y-128309790D01*
X103177776Y-128309476D01*
X103210544Y-128309142D01*
X103238252Y-128308787D01*
X103261119Y-128308411D01*
X103279368Y-128308015D01*
X103293218Y-128307596D01*
X103302892Y-128307155D01*
X103308610Y-128306691D01*
X103310594Y-128306204D01*
X103310677Y-128305236D01*
X103310886Y-128295680D01*
X103311079Y-128276318D01*
X103311256Y-128247593D01*
X103311416Y-128209948D01*
X103311560Y-128163827D01*
X103311687Y-128109675D01*
X103311797Y-128047933D01*
X103311888Y-127979047D01*
X103311961Y-127903459D01*
X103312016Y-127821613D01*
X103312051Y-127733953D01*
X103312067Y-127640922D01*
X103312063Y-127542964D01*
X103312039Y-127440522D01*
X103311994Y-127334040D01*
X103311928Y-127223962D01*
X103311841Y-127110731D01*
X103311733Y-126994791D01*
X103310398Y-125689889D01*
X100467484Y-125688582D01*
X97624569Y-125687275D01*
X97624569Y-125468499D01*
X97624569Y-125249713D01*
X100468729Y-125249713D01*
X103312888Y-125249713D01*
X103314248Y-125467196D01*
G37*
G36*
X102875431Y-127000000D02*
G01*
X102875431Y-127875143D01*
X102437859Y-127875143D01*
X102000287Y-127875143D01*
X102000287Y-127000000D01*
X102000287Y-126124856D01*
X102437859Y-126124856D01*
X102875431Y-126124856D01*
X102875431Y-127000000D01*
G37*
G36*
X101562715Y-127000000D02*
G01*
X101562715Y-127875143D01*
X101125144Y-127875143D01*
X100687572Y-127875143D01*
X100687572Y-127000000D01*
X100687572Y-126124856D01*
X101125144Y-126124856D01*
X101562715Y-126124856D01*
X101562715Y-127000000D01*
G37*
G36*
X100250000Y-127000000D02*
G01*
X100250000Y-127875143D01*
X99812428Y-127875143D01*
X99374857Y-127875143D01*
X99374857Y-127000000D01*
X99374857Y-126124856D01*
X99812428Y-126124856D01*
X100250000Y-126124856D01*
X100250000Y-127000000D01*
G37*
G36*
X98937285Y-127000000D02*
G01*
X98937285Y-127875143D01*
X98499713Y-127875143D01*
X98062141Y-127875143D01*
X98062141Y-127000000D01*
X98062141Y-126124856D01*
X98499713Y-126124856D01*
X98937285Y-126124856D01*
X98937285Y-127000000D01*
G37*
G36*
X110484478Y-134425109D02*
G01*
X110573301Y-134499308D01*
X110590813Y-134680212D01*
X110574299Y-134858325D01*
X110487734Y-134934460D01*
X110276679Y-134949470D01*
X110252769Y-134949509D01*
X110054827Y-134966716D01*
X109976438Y-135053061D01*
X109962545Y-135263604D01*
X109962545Y-135577738D01*
X109020142Y-135577738D01*
X108077739Y-135577738D01*
X108077739Y-135891873D01*
X108077739Y-136206007D01*
X100000000Y-136206007D01*
X91922262Y-136206007D01*
X91922262Y-135891873D01*
X91922262Y-135577738D01*
X90979859Y-135577738D01*
X90037456Y-135577738D01*
X90037456Y-135263604D01*
X90037417Y-135239694D01*
X90020210Y-135041752D01*
X89933865Y-134963364D01*
X89723322Y-134949470D01*
X89515523Y-134935315D01*
X89426699Y-134861116D01*
X89409188Y-134680212D01*
X89425701Y-134502098D01*
X89512267Y-134425964D01*
X89723322Y-134410954D01*
X89931121Y-134425109D01*
X90019944Y-134499308D01*
X90037456Y-134680212D01*
X90069928Y-134873640D01*
X90149647Y-134960164D01*
X90189006Y-134962568D01*
X90387427Y-134969156D01*
X90696898Y-134976223D01*
X91069612Y-134982602D01*
X91877386Y-134994346D01*
X91905510Y-135286042D01*
X91933635Y-135577738D01*
X100000000Y-135577738D01*
X108066366Y-135577738D01*
X108094490Y-135286042D01*
X108122615Y-134994346D01*
X108952827Y-134983127D01*
X109142119Y-134980311D01*
X109489501Y-134973683D01*
X109748192Y-134966773D01*
X109872792Y-134960689D01*
X109873228Y-134960631D01*
X109936323Y-134873221D01*
X109962545Y-134680212D01*
X109979058Y-134502098D01*
X110065624Y-134425964D01*
X110276679Y-134410954D01*
X110484478Y-134425109D01*
G37*
G36*
X108104004Y-130308847D02*
G01*
X108085392Y-132481272D01*
X107789870Y-132526148D01*
X107628968Y-132560606D01*
X107518862Y-132649403D01*
X107494347Y-132837695D01*
X107494347Y-133104366D01*
X106866078Y-133107322D01*
X106237810Y-133110279D01*
X106209871Y-133399109D01*
X106181933Y-133687939D01*
X104953334Y-133712874D01*
X103724735Y-133737809D01*
X103710545Y-134007067D01*
X103698375Y-134213153D01*
X103688107Y-134344635D01*
X103668544Y-134351389D01*
X103503758Y-134364584D01*
X103186881Y-134375574D01*
X102736676Y-134384132D01*
X102171908Y-134390032D01*
X101511341Y-134393047D01*
X100773737Y-134392949D01*
X99977863Y-134389511D01*
X96275866Y-134366078D01*
X96304881Y-134029505D01*
X96333895Y-133692933D01*
X95076168Y-133692933D01*
X93818441Y-133692933D01*
X93790316Y-133401237D01*
X93762191Y-133109541D01*
X93133923Y-133109541D01*
X92505654Y-133109541D01*
X92505654Y-132840283D01*
X92494420Y-132690657D01*
X92414551Y-132579180D01*
X92210131Y-132526148D01*
X91914608Y-132481272D01*
X91904249Y-131272089D01*
X93762191Y-131272089D01*
X99988990Y-131293288D01*
X100605061Y-131295140D01*
X101905557Y-131297149D01*
X103039902Y-131296027D01*
X104006191Y-131291796D01*
X104802522Y-131284477D01*
X105426989Y-131274090D01*
X105877688Y-131260657D01*
X106152716Y-131244199D01*
X106250167Y-131224735D01*
X106250678Y-131222912D01*
X106256959Y-131105329D01*
X106261908Y-130827275D01*
X106265482Y-130406479D01*
X106267636Y-129860674D01*
X106268326Y-129207591D01*
X106267510Y-128464960D01*
X106265141Y-127650512D01*
X106261178Y-126781979D01*
X106237810Y-122428975D01*
X100000000Y-122428975D01*
X93762191Y-122428975D01*
X93762191Y-126850532D01*
X93762191Y-131272089D01*
X91904249Y-131272089D01*
X91895997Y-130308847D01*
X91877386Y-128136423D01*
X92173801Y-128109907D01*
X92470217Y-128083392D01*
X92487936Y-125615194D01*
X92505654Y-123146996D01*
X92797350Y-123118872D01*
X93089046Y-123090747D01*
X93089046Y-122202839D01*
X93089046Y-121314931D01*
X93735408Y-121288561D01*
X94381769Y-121262191D01*
X94386115Y-120948056D01*
X94390460Y-120633922D01*
X100000000Y-120633922D01*
X105609541Y-120633922D01*
X105613886Y-120948056D01*
X105618231Y-121262191D01*
X106264593Y-121288561D01*
X106910954Y-121314931D01*
X106910954Y-122202839D01*
X106910954Y-123090747D01*
X107202651Y-123118872D01*
X107494347Y-123146996D01*
X107512065Y-125615194D01*
X107529783Y-128083392D01*
X107826199Y-128109907D01*
X108122615Y-128136423D01*
X108113438Y-129207591D01*
X108104004Y-130308847D01*
G37*
G36*
X114239782Y-122577763D02*
G01*
X114339691Y-122657490D01*
X114377176Y-122855300D01*
X114408038Y-123040356D01*
X114495043Y-123121184D01*
X114696997Y-123118817D01*
X114988693Y-123090637D01*
X114988693Y-127757830D01*
X114988693Y-132425022D01*
X114696997Y-132453147D01*
X114537704Y-132478787D01*
X114420691Y-132567353D01*
X114377176Y-132772968D01*
X114344168Y-132960038D01*
X114251452Y-133047251D01*
X114040604Y-133064664D01*
X114020313Y-133064695D01*
X113824218Y-133081850D01*
X113746169Y-133168215D01*
X113732156Y-133378798D01*
X113732156Y-133692933D01*
X113103887Y-133692933D01*
X112475619Y-133692933D01*
X112475619Y-134007067D01*
X112475619Y-134321201D01*
X111527529Y-134321201D01*
X110579440Y-134321201D01*
X110607565Y-134029505D01*
X110635689Y-133737809D01*
X111550197Y-133712291D01*
X112464705Y-133686774D01*
X112492600Y-133398157D01*
X112521842Y-133222375D01*
X112609218Y-133132368D01*
X112812191Y-133122650D01*
X112813322Y-133122701D01*
X113010130Y-133116132D01*
X113089294Y-133036574D01*
X113103887Y-132830954D01*
X113103912Y-132813000D01*
X113121031Y-132618079D01*
X113207410Y-132540241D01*
X113418022Y-132526148D01*
X113732156Y-132526148D01*
X113732156Y-127544876D01*
X113732156Y-122563604D01*
X114040604Y-122563604D01*
X114239782Y-122577763D01*
G37*
G36*
X86267845Y-127544876D02*
G01*
X86267845Y-132526148D01*
X86581979Y-132526148D01*
X86602759Y-132526178D01*
X86802407Y-132543036D01*
X86881855Y-132627891D01*
X86896113Y-132834792D01*
X86896122Y-132846106D01*
X86911452Y-133047180D01*
X86991300Y-133123260D01*
X87187810Y-133126489D01*
X87369062Y-133128263D01*
X87469677Y-133200399D01*
X87507401Y-133398157D01*
X87535296Y-133686774D01*
X88449804Y-133712291D01*
X89364311Y-133737809D01*
X89392436Y-134029505D01*
X89420561Y-134321201D01*
X88472471Y-134321201D01*
X87524382Y-134321201D01*
X87524382Y-134007067D01*
X87524382Y-133692933D01*
X86896113Y-133692933D01*
X86267845Y-133692933D01*
X86267845Y-133378798D01*
X86267815Y-133358134D01*
X86250970Y-133158423D01*
X86166168Y-133078936D01*
X85959397Y-133064664D01*
X85760219Y-133050506D01*
X85660310Y-132970778D01*
X85622825Y-132772968D01*
X85597185Y-132613675D01*
X85508619Y-132496662D01*
X85303004Y-132453147D01*
X85011308Y-132425022D01*
X85011308Y-127757830D01*
X85011308Y-123090637D01*
X85303004Y-123118817D01*
X85490550Y-123123916D01*
X85586526Y-123053976D01*
X85622825Y-122855300D01*
X85655833Y-122668230D01*
X85748549Y-122581017D01*
X85959397Y-122563604D01*
X86267845Y-122563604D01*
X86267845Y-127544876D01*
G37*
G36*
X109962747Y-132507811D02*
G01*
X109962545Y-133072866D01*
X109356714Y-133046327D01*
X108750884Y-133019788D01*
X108724191Y-132511242D01*
X108697499Y-132002696D01*
X109330224Y-131972726D01*
X109962949Y-131942756D01*
X109962747Y-132507811D01*
G37*
G36*
X109962949Y-130641343D02*
G01*
X109962949Y-131224735D01*
X109334478Y-131194932D01*
X108706007Y-131165128D01*
X108706007Y-130641343D01*
X108706007Y-130117557D01*
X109334478Y-130087754D01*
X109962949Y-130057950D01*
X109962949Y-130641343D01*
G37*
G36*
X111219082Y-124403533D02*
G01*
X111219082Y-124986926D01*
X111847350Y-124986926D01*
X112475619Y-124986926D01*
X112475619Y-125615194D01*
X112475619Y-126243463D01*
X111847350Y-126243463D01*
X111219082Y-126243463D01*
X111219082Y-126871731D01*
X111219082Y-127500000D01*
X110590813Y-127500000D01*
X109962545Y-127500000D01*
X109962545Y-126871731D01*
X109962545Y-126243463D01*
X109334276Y-126243463D01*
X108706007Y-126243463D01*
X108706007Y-125619126D01*
X108706007Y-124994790D01*
X109351091Y-124968420D01*
X109996175Y-124942049D01*
X109973011Y-124381095D01*
X109949847Y-123820141D01*
X110584464Y-123820141D01*
X111219082Y-123820141D01*
X111219082Y-124403533D01*
G37*
G36*
X91293993Y-125301060D02*
G01*
X91294032Y-125324970D01*
X91311240Y-125522912D01*
X91397585Y-125601300D01*
X91608128Y-125615194D01*
X91922262Y-125615194D01*
X91922262Y-126243463D01*
X91922262Y-126871731D01*
X91608128Y-126871731D01*
X91584217Y-126871770D01*
X91386275Y-126888978D01*
X91307887Y-126975323D01*
X91293993Y-127185866D01*
X91293993Y-127500000D01*
X90671411Y-127500000D01*
X90048829Y-127500000D01*
X90020705Y-127208304D01*
X89995065Y-127049011D01*
X89906499Y-126931998D01*
X89700884Y-126888483D01*
X89409188Y-126860358D01*
X89409188Y-126237776D01*
X89409188Y-125615194D01*
X89723322Y-125615194D01*
X89747232Y-125615155D01*
X89945174Y-125597948D01*
X90023562Y-125511603D01*
X90037456Y-125301060D01*
X90037456Y-124986926D01*
X90665725Y-124986926D01*
X91293993Y-124986926D01*
X91293993Y-125301060D01*
G37*
G36*
X88780919Y-123461131D02*
G01*
X88781622Y-123567066D01*
X88804541Y-123742165D01*
X88893924Y-123809273D01*
X89095053Y-123820141D01*
X89409188Y-123820141D01*
X89409188Y-124403533D01*
X89409188Y-124986926D01*
X89095053Y-124986926D01*
X89071143Y-124986965D01*
X88873201Y-125004172D01*
X88794813Y-125090517D01*
X88780919Y-125301060D01*
X88780919Y-125615194D01*
X88152651Y-125615194D01*
X87524382Y-125615194D01*
X87524382Y-125301060D01*
X87524343Y-125277150D01*
X87507136Y-125079208D01*
X87420790Y-125000820D01*
X87210248Y-124986926D01*
X86896113Y-124986926D01*
X86896113Y-124409220D01*
X86896113Y-123831514D01*
X87187810Y-123803390D01*
X87196876Y-123802504D01*
X87386397Y-123764325D01*
X87472998Y-123662336D01*
X87507362Y-123438692D01*
X87535218Y-123102120D01*
X88158068Y-123102120D01*
X88780919Y-123102120D01*
X88780919Y-123461131D01*
G37*
G36*
X113012743Y-120695312D02*
G01*
X113088877Y-120781878D01*
X113103887Y-120992933D01*
X113103926Y-121016843D01*
X113121134Y-121214785D01*
X113207479Y-121293173D01*
X113418022Y-121307067D01*
X113732156Y-121307067D01*
X113732156Y-121890459D01*
X113732156Y-122473851D01*
X113418022Y-122473851D01*
X113406980Y-122473842D01*
X113202039Y-122458009D01*
X113119286Y-122377381D01*
X113103887Y-122180804D01*
X113103887Y-121887757D01*
X112183923Y-121889108D01*
X111263958Y-121890459D01*
X111235833Y-121598763D01*
X111207708Y-121307067D01*
X111886540Y-121307067D01*
X112565371Y-121307067D01*
X112565371Y-120992933D01*
X112579526Y-120785134D01*
X112653725Y-120696310D01*
X112834629Y-120678798D01*
X113012743Y-120695312D01*
G37*
G36*
X89140184Y-120678893D02*
G01*
X89330554Y-120695773D01*
X89398113Y-120776448D01*
X89392436Y-120970495D01*
X89367436Y-121127221D01*
X89280104Y-121245999D01*
X89077907Y-121289921D01*
X88929839Y-121313335D01*
X88808595Y-121400372D01*
X88763773Y-121604055D01*
X88736043Y-121890459D01*
X87816078Y-121887521D01*
X86896113Y-121884583D01*
X86896113Y-122179217D01*
X86896102Y-122190561D01*
X86879107Y-122382244D01*
X86792684Y-122459524D01*
X86581979Y-122473851D01*
X86267845Y-122473851D01*
X86267845Y-121890459D01*
X86267845Y-121307067D01*
X86581979Y-121307067D01*
X86605889Y-121307028D01*
X86803831Y-121289821D01*
X86882220Y-121203475D01*
X86896113Y-120992933D01*
X86909845Y-120787403D01*
X86982510Y-120696899D01*
X87159685Y-120678798D01*
X87305994Y-120689680D01*
X87410637Y-120768140D01*
X87451381Y-120970495D01*
X87479506Y-121262191D01*
X88130212Y-121288561D01*
X88780919Y-121314931D01*
X88780919Y-120996865D01*
X88781010Y-120960054D01*
X88799350Y-120767567D01*
X88887710Y-120691932D01*
X89100740Y-120678798D01*
X89140184Y-120678893D01*
G37*
G36*
X111108729Y-120692529D02*
G01*
X111200443Y-120763060D01*
X111219082Y-120933098D01*
X111202051Y-121122463D01*
X111155126Y-121251352D01*
X111059483Y-121286355D01*
X110863430Y-121288749D01*
X110776441Y-121272578D01*
X110656197Y-121181961D01*
X110607565Y-120970495D01*
X110604199Y-120934511D01*
X110605823Y-120759397D01*
X110687651Y-120690685D01*
X110899261Y-120678798D01*
X111108729Y-120692529D01*
G37*
G36*
X112475619Y-120323889D02*
G01*
X112475619Y-120597247D01*
X111869788Y-120570708D01*
X111738056Y-120564666D01*
X111469788Y-120544262D01*
X111324456Y-120504908D01*
X111260299Y-120428603D01*
X111235558Y-120297350D01*
X111207158Y-120050530D01*
X111841389Y-120050530D01*
X112475619Y-120050530D01*
X112475619Y-120323889D01*
G37*
G36*
X108077739Y-119108127D02*
G01*
X108077739Y-119422261D01*
X109648410Y-119422261D01*
X111219082Y-119422261D01*
X111219082Y-119691519D01*
X111202568Y-119869633D01*
X111116002Y-119945767D01*
X110904947Y-119960777D01*
X110881037Y-119960816D01*
X110683095Y-119978024D01*
X110604707Y-120064369D01*
X110590813Y-120274912D01*
X110590813Y-120589046D01*
X110013107Y-120589046D01*
X109435402Y-120589046D01*
X109407277Y-120299023D01*
X109379152Y-120008999D01*
X108750884Y-120007326D01*
X108122615Y-120005654D01*
X108094490Y-119713957D01*
X108066366Y-119422261D01*
X100000000Y-119422261D01*
X91933635Y-119422261D01*
X91905510Y-119713957D01*
X91901964Y-119750886D01*
X91880798Y-119886528D01*
X91825568Y-119968704D01*
X91699929Y-120011987D01*
X91467538Y-120030953D01*
X91092050Y-120040177D01*
X91050433Y-120041023D01*
X90778046Y-120052232D01*
X90636978Y-120086823D01*
X90584023Y-120168205D01*
X90575972Y-120319788D01*
X90575972Y-120589046D01*
X89992580Y-120589046D01*
X89409188Y-120589046D01*
X89409188Y-120274912D01*
X89409149Y-120251001D01*
X89391941Y-120053059D01*
X89305596Y-119974671D01*
X89095053Y-119960777D01*
X88887254Y-119946623D01*
X88798431Y-119872423D01*
X88780919Y-119691519D01*
X88780919Y-119422261D01*
X90351590Y-119422261D01*
X91922262Y-119422261D01*
X91922262Y-119108127D01*
X91922262Y-118793993D01*
X100000000Y-118793993D01*
X108077739Y-118793993D01*
X108077739Y-119108127D01*
G37*
G36*
X88780919Y-120319788D02*
G01*
X88780919Y-120589046D01*
X88152651Y-120589046D01*
X87524382Y-120589046D01*
X87524382Y-120319788D01*
X87524382Y-120050530D01*
X88152651Y-120050530D01*
X88780919Y-120050530D01*
X88780919Y-120319788D01*
G37*
%LPC*%
D11*
X117200000Y-120210000D03*
D12*
X117200000Y-118940000D03*
D13*
X102890000Y-136090000D03*
X97110000Y-136090000D03*
D14*
X95680000Y-139740000D03*
X104320000Y-139740000D03*
D15*
X104320000Y-135560000D03*
X95680000Y-135560000D03*
D11*
X83200000Y-120410000D03*
D12*
X83200000Y-119140000D03*
%LPD*%
M02*
