%TF.GenerationSoftware,KiCad,Pcbnew,7.0.6*%
%TF.CreationDate,2023-09-04T13:51:18+12:00*%
%TF.ProjectId,GBA_lipo,4742415f-6c69-4706-9f2e-6b696361645f,rev?*%
%TF.SameCoordinates,Original*%
%TF.FileFunction,Copper,L2,Bot*%
%TF.FilePolarity,Positive*%
%FSLAX46Y46*%
G04 Gerber Fmt 4.6, Leading zero omitted, Abs format (unit mm)*
G04 Created by KiCad (PCBNEW 7.0.6) date 2023-09-04 13:51:18*
%MOMM*%
%LPD*%
G01*
G04 APERTURE LIST*
%TA.AperFunction,ComponentPad*%
%ADD10R,1.000000X1.000000*%
%TD*%
%TA.AperFunction,ComponentPad*%
%ADD11O,1.000000X1.000000*%
%TD*%
%TA.AperFunction,ComponentPad*%
%ADD12O,1.000000X1.600000*%
%TD*%
%TA.AperFunction,ComponentPad*%
%ADD13O,1.000000X2.100000*%
%TD*%
%TA.AperFunction,ViaPad*%
%ADD14C,0.800000*%
%TD*%
%TA.AperFunction,Conductor*%
%ADD15C,0.600000*%
%TD*%
%TA.AperFunction,Conductor*%
%ADD16C,0.250000*%
%TD*%
G04 APERTURE END LIST*
D10*
X117200000Y-120210000D03*
D11*
X117200000Y-118940000D03*
D12*
X95680000Y-139740000D03*
X104320000Y-139740000D03*
D13*
X104320000Y-135560000D03*
X95680000Y-135560000D03*
D10*
X83200000Y-120410000D03*
D11*
X83200000Y-119140000D03*
D14*
X109250000Y-123000000D03*
X110100000Y-132000000D03*
X90250000Y-132240498D03*
X90250000Y-136439502D03*
X103600000Y-122140000D03*
X111600000Y-124340000D03*
X111148212Y-117639500D03*
X113800000Y-126540000D03*
X109200000Y-127740000D03*
X106750000Y-120750000D03*
X90600000Y-130540000D03*
X103600000Y-122140000D03*
X96705499Y-123800136D03*
D15*
X110100000Y-132000000D02*
X110100000Y-123850000D01*
X110100000Y-123850000D02*
X109250000Y-123000000D01*
D16*
X90250000Y-134750000D02*
X90250000Y-136439502D01*
X90250000Y-132240498D02*
X90250000Y-134750000D01*
%TA.AperFunction,Conductor*%
G36*
X119403513Y-115000895D02*
G01*
X119426353Y-115003469D01*
X119529828Y-115017092D01*
X119554972Y-115023078D01*
X119596324Y-115037548D01*
X119599609Y-115038802D01*
X119668950Y-115067524D01*
X119687768Y-115077246D01*
X119730215Y-115103917D01*
X119735051Y-115107281D01*
X119761065Y-115127242D01*
X119795041Y-115153312D01*
X119801230Y-115158740D01*
X119841257Y-115198767D01*
X119846690Y-115204962D01*
X119892717Y-115264947D01*
X119896081Y-115269783D01*
X119922752Y-115312230D01*
X119932474Y-115331048D01*
X119961196Y-115400389D01*
X119962456Y-115403691D01*
X119970587Y-115426928D01*
X119976916Y-115445014D01*
X119982908Y-115470180D01*
X119996530Y-115573655D01*
X119999103Y-115596477D01*
X119999500Y-115603540D01*
X119999500Y-126134724D01*
X119979498Y-126202845D01*
X119925842Y-126249338D01*
X119895380Y-126258810D01*
X119785708Y-126278148D01*
X119783454Y-126277896D01*
X119780571Y-126278717D01*
X119774266Y-126280165D01*
X119677711Y-126297190D01*
X119677708Y-126297190D01*
X119677708Y-126297191D01*
X119667171Y-126301026D01*
X119568417Y-126336969D01*
X119565237Y-126337171D01*
X119561295Y-126339134D01*
X119554758Y-126341940D01*
X119473739Y-126371429D01*
X119473734Y-126371432D01*
X119366238Y-126433495D01*
X119362091Y-126434500D01*
X119357389Y-126438052D01*
X119350919Y-126442339D01*
X119285766Y-126479955D01*
X119285760Y-126479959D01*
X119184942Y-126564556D01*
X119180050Y-126566696D01*
X119175274Y-126571936D01*
X119169206Y-126577760D01*
X119141833Y-126600729D01*
X119139303Y-126602743D01*
X119115226Y-126620925D01*
X119106045Y-126635497D01*
X119030186Y-126725903D01*
X119024886Y-126729428D01*
X119023071Y-126732361D01*
X119012468Y-126747017D01*
X118975442Y-126791142D01*
X118972128Y-126794776D01*
X118965943Y-126810036D01*
X118906882Y-126912333D01*
X118901577Y-126917390D01*
X118900227Y-126920877D01*
X118891859Y-126938352D01*
X118871431Y-126973735D01*
X118869105Y-126978725D01*
X118868673Y-126978523D01*
X118862827Y-126990562D01*
X118859405Y-127006774D01*
X118818981Y-127117838D01*
X118814098Y-127124468D01*
X118813398Y-127128218D01*
X118807946Y-127148156D01*
X118797191Y-127177705D01*
X118797188Y-127177718D01*
X118796373Y-127182339D01*
X118790321Y-127204029D01*
X118789848Y-127219345D01*
X118769321Y-127335766D01*
X118765290Y-127343899D01*
X118765290Y-127347608D01*
X118763376Y-127369486D01*
X118759500Y-127391469D01*
X118759500Y-127404882D01*
X118757452Y-127426980D01*
X118759500Y-127440885D01*
X118759500Y-127559113D01*
X118756721Y-127568575D01*
X118757355Y-127571964D01*
X118759500Y-127595116D01*
X118759500Y-127608529D01*
X118763376Y-127630512D01*
X118765267Y-127652134D01*
X118769321Y-127664232D01*
X118789848Y-127780653D01*
X118788674Y-127791175D01*
X118789780Y-127794029D01*
X118796374Y-127817665D01*
X118797188Y-127822282D01*
X118797189Y-127822286D01*
X118807946Y-127851841D01*
X118813398Y-127871781D01*
X118813446Y-127872041D01*
X118818981Y-127882161D01*
X118859405Y-127993223D01*
X118860119Y-128004460D01*
X118861475Y-128006650D01*
X118868670Y-128021477D01*
X118869105Y-128021275D01*
X118871432Y-128026265D01*
X118891859Y-128061646D01*
X118900231Y-128079128D01*
X118900434Y-128079654D01*
X118906881Y-128087665D01*
X118965942Y-128189961D01*
X118968743Y-128201507D01*
X118975432Y-128208845D01*
X119012471Y-128252985D01*
X119023077Y-128267646D01*
X119023431Y-128268218D01*
X119030185Y-128274096D01*
X119106043Y-128364500D01*
X119111036Y-128375908D01*
X119139288Y-128397243D01*
X119141811Y-128399252D01*
X119169217Y-128422249D01*
X119175280Y-128428068D01*
X119178480Y-128431579D01*
X119184939Y-128435441D01*
X119201708Y-128449512D01*
X119285759Y-128520040D01*
X119285762Y-128520041D01*
X119350923Y-128557662D01*
X119357396Y-128561951D01*
X119360597Y-128564368D01*
X119366239Y-128566505D01*
X119445005Y-128611980D01*
X119473739Y-128628570D01*
X119554774Y-128658064D01*
X119561307Y-128660870D01*
X119563978Y-128662200D01*
X119568415Y-128663029D01*
X119677708Y-128702808D01*
X119677708Y-128702809D01*
X119774278Y-128719837D01*
X119780584Y-128721286D01*
X119782485Y-128721827D01*
X119785703Y-128721850D01*
X119891470Y-128740500D01*
X119891471Y-128740500D01*
X119895379Y-128741189D01*
X119958991Y-128772716D01*
X119995461Y-128833630D01*
X119999499Y-128865275D01*
X119999499Y-139885855D01*
X119979497Y-139953976D01*
X119925841Y-140000469D01*
X119886405Y-140011192D01*
X118906113Y-140112135D01*
X117459844Y-140260394D01*
X116200908Y-140372645D01*
X114880929Y-140488520D01*
X113595084Y-140585460D01*
X112299017Y-140680198D01*
X111001274Y-140760196D01*
X109714566Y-140835392D01*
X108410301Y-140897894D01*
X107128001Y-140954069D01*
X105819963Y-140998826D01*
X104885291Y-141026114D01*
X104816616Y-141008109D01*
X104768577Y-140955833D01*
X104756426Y-140885884D01*
X104784022Y-140820470D01*
X104807553Y-140798232D01*
X104925534Y-140712513D01*
X105052127Y-140571918D01*
X105146717Y-140408081D01*
X105146718Y-140408077D01*
X105201332Y-140240000D01*
X104543626Y-140240000D01*
X104579484Y-140200666D01*
X104620000Y-140096080D01*
X104620000Y-139412198D01*
X104604588Y-139329750D01*
X104545543Y-139234390D01*
X104456038Y-139166799D01*
X104348160Y-139136105D01*
X104236479Y-139146454D01*
X104136078Y-139196448D01*
X104060516Y-139279334D01*
X104020000Y-139383920D01*
X104020000Y-140067802D01*
X104035412Y-140150250D01*
X104090983Y-140240000D01*
X103438668Y-140240000D01*
X103493281Y-140408077D01*
X103493282Y-140408081D01*
X103587872Y-140571918D01*
X103714465Y-140712513D01*
X103867307Y-140823560D01*
X103910661Y-140879782D01*
X103916736Y-140950519D01*
X103883604Y-141013310D01*
X103821784Y-141048222D01*
X103795832Y-141051469D01*
X103229492Y-141063094D01*
X101950728Y-141081757D01*
X100639238Y-141090729D01*
X99360762Y-141090729D01*
X98049271Y-141081757D01*
X96770507Y-141063094D01*
X96204166Y-141051469D01*
X96136470Y-141030074D01*
X96091088Y-140975475D01*
X96082429Y-140905009D01*
X96113241Y-140841047D01*
X96132692Y-140823560D01*
X96285532Y-140712515D01*
X96412127Y-140571918D01*
X96506717Y-140408081D01*
X96506718Y-140408077D01*
X96561332Y-140240000D01*
X95903626Y-140240000D01*
X95939484Y-140200666D01*
X95980000Y-140096080D01*
X95980000Y-139412198D01*
X95964588Y-139329750D01*
X95905543Y-139234390D01*
X95816038Y-139166799D01*
X95708160Y-139136105D01*
X95596479Y-139146454D01*
X95496078Y-139196448D01*
X95420516Y-139279334D01*
X95380000Y-139383920D01*
X95380000Y-140067802D01*
X95395412Y-140150250D01*
X95450983Y-140240000D01*
X94798668Y-140240000D01*
X94853281Y-140408077D01*
X94853282Y-140408081D01*
X94947872Y-140571918D01*
X95074465Y-140712513D01*
X95192446Y-140798232D01*
X95235800Y-140854454D01*
X95241875Y-140925191D01*
X95208743Y-140987982D01*
X95146923Y-141022894D01*
X95114708Y-141026114D01*
X94180036Y-140998826D01*
X92871998Y-140954069D01*
X91589698Y-140897894D01*
X90285433Y-140835392D01*
X88998725Y-140760196D01*
X87700982Y-140680198D01*
X86404915Y-140585460D01*
X85119070Y-140488520D01*
X83799091Y-140372645D01*
X82540155Y-140260394D01*
X81093886Y-140112135D01*
X80113594Y-140011192D01*
X80047880Y-139984318D01*
X80007128Y-139926182D01*
X80000500Y-139885855D01*
X80000500Y-139240000D01*
X94798668Y-139240000D01*
X95180000Y-139240000D01*
X95180000Y-138690810D01*
X96180000Y-138690810D01*
X96180000Y-139240000D01*
X96561332Y-139240000D01*
X103438668Y-139240000D01*
X103820000Y-139240000D01*
X103819999Y-138690810D01*
X104820000Y-138690810D01*
X104820000Y-139240000D01*
X105201332Y-139240000D01*
X105201331Y-139239999D01*
X105146718Y-139071922D01*
X105146717Y-139071918D01*
X105052127Y-138908081D01*
X104925536Y-138767488D01*
X104820000Y-138690810D01*
X103819999Y-138690810D01*
X103714463Y-138767488D01*
X103587872Y-138908081D01*
X103493282Y-139071918D01*
X103493281Y-139071922D01*
X103438668Y-139239999D01*
X103438668Y-139240000D01*
X96561332Y-139240000D01*
X96561331Y-139239999D01*
X96506718Y-139071922D01*
X96506717Y-139071918D01*
X96412127Y-138908081D01*
X96285536Y-138767488D01*
X96180000Y-138690810D01*
X95180000Y-138690810D01*
X95074463Y-138767488D01*
X94947872Y-138908081D01*
X94853282Y-139071918D01*
X94853281Y-139071922D01*
X94798668Y-139239999D01*
X94798668Y-139240000D01*
X80000500Y-139240000D01*
X80000500Y-136439502D01*
X89444435Y-136439502D01*
X89464632Y-136618757D01*
X89475805Y-136650687D01*
X89524211Y-136789024D01*
X89524212Y-136789027D01*
X89620182Y-136941762D01*
X89620183Y-136941764D01*
X89747737Y-137069318D01*
X89747739Y-137069319D01*
X89900474Y-137165289D01*
X89900475Y-137165289D01*
X89900478Y-137165291D01*
X90070745Y-137224870D01*
X90250000Y-137245067D01*
X90429255Y-137224870D01*
X90599522Y-137165291D01*
X90752262Y-137069318D01*
X90879816Y-136941764D01*
X90975789Y-136789024D01*
X91035368Y-136618757D01*
X91055565Y-136439502D01*
X91035368Y-136260247D01*
X90975789Y-136089980D01*
X90975787Y-136089977D01*
X90975787Y-136089976D01*
X90956952Y-136060000D01*
X94780000Y-136060000D01*
X94780000Y-136157169D01*
X94794817Y-136298150D01*
X94853281Y-136478077D01*
X94853282Y-136478081D01*
X94947872Y-136641918D01*
X95074465Y-136782513D01*
X95179999Y-136859189D01*
X95180000Y-136859189D01*
X96180000Y-136859189D01*
X96285534Y-136782513D01*
X96412127Y-136641918D01*
X96487854Y-136510752D01*
X96539236Y-136461758D01*
X96608949Y-136448321D01*
X96674861Y-136474707D01*
X96696934Y-136497044D01*
X96699548Y-136500451D01*
X96712973Y-136510752D01*
X96819767Y-136592698D01*
X96959764Y-136650687D01*
X97072280Y-136665500D01*
X97072287Y-136665500D01*
X97147713Y-136665500D01*
X97147720Y-136665500D01*
X97260236Y-136650687D01*
X97400233Y-136592698D01*
X97520451Y-136500451D01*
X97612698Y-136380233D01*
X97670687Y-136240236D01*
X97690466Y-136090000D01*
X102309534Y-136090000D01*
X102329312Y-136240234D01*
X102387301Y-136380231D01*
X102387306Y-136380239D01*
X102479548Y-136500451D01*
X102492973Y-136510752D01*
X102599767Y-136592698D01*
X102739764Y-136650687D01*
X102852280Y-136665500D01*
X102852287Y-136665500D01*
X102927713Y-136665500D01*
X102927720Y-136665500D01*
X103040236Y-136650687D01*
X103180233Y-136592698D01*
X103300451Y-136500451D01*
X103303061Y-136497048D01*
X103305999Y-136494903D01*
X103306291Y-136494612D01*
X103306336Y-136494657D01*
X103360397Y-136455181D01*
X103431267Y-136450957D01*
X103493172Y-136485719D01*
X103512145Y-136510752D01*
X103587872Y-136641918D01*
X103714465Y-136782513D01*
X103819999Y-136859189D01*
X103820000Y-136859189D01*
X103820000Y-136137802D01*
X104020000Y-136137802D01*
X104035412Y-136220250D01*
X104094457Y-136315610D01*
X104183962Y-136383201D01*
X104291840Y-136413895D01*
X104403521Y-136403546D01*
X104503922Y-136353552D01*
X104579484Y-136270666D01*
X104620000Y-136166080D01*
X104620000Y-136060000D01*
X104820000Y-136060000D01*
X104820000Y-136859189D01*
X104925534Y-136782513D01*
X105052127Y-136641918D01*
X105146717Y-136478081D01*
X105146718Y-136478077D01*
X105205182Y-136298150D01*
X105219999Y-136157169D01*
X105220000Y-136157161D01*
X105220000Y-136060000D01*
X104820000Y-136060000D01*
X104620000Y-136060000D01*
X104620000Y-134982198D01*
X104604588Y-134899750D01*
X104545543Y-134804390D01*
X104456038Y-134736799D01*
X104348160Y-134706105D01*
X104236479Y-134716454D01*
X104136078Y-134766448D01*
X104060516Y-134849334D01*
X104020000Y-134953920D01*
X104020000Y-136137802D01*
X103820000Y-136137802D01*
X103820000Y-136060000D01*
X103577015Y-136060000D01*
X103508894Y-136039998D01*
X103462401Y-135986342D01*
X103452093Y-135950444D01*
X103450687Y-135939766D01*
X103450687Y-135939765D01*
X103450687Y-135939764D01*
X103392698Y-135799767D01*
X103378093Y-135780733D01*
X103300451Y-135679548D01*
X103180239Y-135587306D01*
X103180231Y-135587301D01*
X103040234Y-135529312D01*
X102927722Y-135514500D01*
X102927720Y-135514500D01*
X102852280Y-135514500D01*
X102852277Y-135514500D01*
X102739765Y-135529312D01*
X102599768Y-135587301D01*
X102599760Y-135587306D01*
X102479548Y-135679548D01*
X102387306Y-135799760D01*
X102387301Y-135799768D01*
X102329312Y-135939765D01*
X102309534Y-136089999D01*
X102309534Y-136090000D01*
X97690466Y-136090000D01*
X97670687Y-135939764D01*
X97612698Y-135799767D01*
X97598093Y-135780733D01*
X97520451Y-135679548D01*
X97400239Y-135587306D01*
X97400231Y-135587301D01*
X97260234Y-135529312D01*
X97147722Y-135514500D01*
X97147720Y-135514500D01*
X97072280Y-135514500D01*
X97072277Y-135514500D01*
X96959765Y-135529312D01*
X96819768Y-135587301D01*
X96819760Y-135587306D01*
X96699548Y-135679548D01*
X96607306Y-135799760D01*
X96607301Y-135799768D01*
X96549312Y-135939766D01*
X96547907Y-135950444D01*
X96519186Y-136015372D01*
X96459921Y-136054465D01*
X96422985Y-136060000D01*
X96180000Y-136060000D01*
X96180000Y-136859189D01*
X95180000Y-136859189D01*
X95180000Y-136137802D01*
X95380000Y-136137802D01*
X95395412Y-136220250D01*
X95454457Y-136315610D01*
X95543962Y-136383201D01*
X95651840Y-136413895D01*
X95763521Y-136403546D01*
X95863922Y-136353552D01*
X95939484Y-136270666D01*
X95980000Y-136166080D01*
X95980000Y-134982198D01*
X95964588Y-134899750D01*
X95905543Y-134804390D01*
X95816038Y-134736799D01*
X95708160Y-134706105D01*
X95596479Y-134716454D01*
X95496078Y-134766448D01*
X95420516Y-134849334D01*
X95380000Y-134953920D01*
X95380000Y-136137802D01*
X95180000Y-136137802D01*
X95180000Y-136060000D01*
X94780000Y-136060000D01*
X90956952Y-136060000D01*
X90879817Y-135937241D01*
X90879816Y-135937239D01*
X90812405Y-135869828D01*
X90778379Y-135807516D01*
X90775500Y-135780733D01*
X90775500Y-135060000D01*
X94780000Y-135060000D01*
X95180000Y-135060000D01*
X95180000Y-134260810D01*
X96180000Y-134260810D01*
X96180000Y-135060000D01*
X96580000Y-135060000D01*
X103420000Y-135060000D01*
X103820000Y-135060000D01*
X103820000Y-134260810D01*
X104820000Y-134260810D01*
X104820000Y-135060000D01*
X105220000Y-135060000D01*
X105220000Y-134962838D01*
X105219999Y-134962830D01*
X105205182Y-134821849D01*
X105146718Y-134641922D01*
X105146717Y-134641918D01*
X105052127Y-134478081D01*
X104925536Y-134337488D01*
X104820000Y-134260810D01*
X103820000Y-134260810D01*
X103714463Y-134337488D01*
X103587872Y-134478081D01*
X103493282Y-134641918D01*
X103493281Y-134641922D01*
X103434817Y-134821849D01*
X103420000Y-134962830D01*
X103420000Y-135060000D01*
X96580000Y-135060000D01*
X96580000Y-134962838D01*
X96579999Y-134962830D01*
X96565182Y-134821849D01*
X96506718Y-134641922D01*
X96506717Y-134641918D01*
X96412127Y-134478081D01*
X96285536Y-134337488D01*
X96180000Y-134260810D01*
X95180000Y-134260810D01*
X95074463Y-134337488D01*
X94947872Y-134478081D01*
X94853282Y-134641918D01*
X94853281Y-134641922D01*
X94794817Y-134821849D01*
X94780000Y-134962830D01*
X94780000Y-135060000D01*
X90775500Y-135060000D01*
X90775500Y-132899266D01*
X90795502Y-132831145D01*
X90812400Y-132810175D01*
X90879816Y-132742760D01*
X90975789Y-132590020D01*
X91035368Y-132419753D01*
X91055565Y-132240498D01*
X91035368Y-132061243D01*
X90975789Y-131890976D01*
X90975787Y-131890973D01*
X90975787Y-131890972D01*
X90879817Y-131738237D01*
X90879816Y-131738235D01*
X90752262Y-131610681D01*
X90752260Y-131610680D01*
X90599525Y-131514710D01*
X90599522Y-131514709D01*
X90599521Y-131514709D01*
X90429255Y-131455130D01*
X90250000Y-131434933D01*
X90249999Y-131434933D01*
X90223926Y-131437870D01*
X90070745Y-131455130D01*
X90070742Y-131455130D01*
X90070742Y-131455131D01*
X89900477Y-131514709D01*
X89900474Y-131514710D01*
X89747739Y-131610680D01*
X89747737Y-131610681D01*
X89620183Y-131738235D01*
X89620182Y-131738237D01*
X89524212Y-131890972D01*
X89524211Y-131890975D01*
X89524211Y-131890976D01*
X89464632Y-132061243D01*
X89444435Y-132240498D01*
X89464632Y-132419753D01*
X89493503Y-132502262D01*
X89524211Y-132590020D01*
X89524212Y-132590023D01*
X89620181Y-132742757D01*
X89620183Y-132742759D01*
X89620184Y-132742760D01*
X89687596Y-132810172D01*
X89721620Y-132872482D01*
X89724500Y-132899266D01*
X89724500Y-135780733D01*
X89704498Y-135848854D01*
X89687595Y-135869828D01*
X89620183Y-135937239D01*
X89620182Y-135937241D01*
X89524212Y-136089976D01*
X89524211Y-136089979D01*
X89471635Y-136240234D01*
X89464632Y-136260247D01*
X89444435Y-136439502D01*
X80000500Y-136439502D01*
X80000500Y-128865275D01*
X80020502Y-128797154D01*
X80074158Y-128750661D01*
X80104621Y-128741189D01*
X80108529Y-128740500D01*
X80108530Y-128740500D01*
X80214291Y-128721852D01*
X80216539Y-128722102D01*
X80219410Y-128721286D01*
X80225715Y-128719837D01*
X80322292Y-128702809D01*
X80431580Y-128663030D01*
X80434756Y-128662829D01*
X80438685Y-128660873D01*
X80445218Y-128658067D01*
X80526261Y-128628570D01*
X80633761Y-128566504D01*
X80637902Y-128565499D01*
X80642596Y-128561955D01*
X80649065Y-128557668D01*
X80714240Y-128520040D01*
X80815059Y-128435442D01*
X80819941Y-128433305D01*
X80824709Y-128428076D01*
X80830769Y-128422260D01*
X80858241Y-128399208D01*
X80860724Y-128397232D01*
X80884778Y-128379067D01*
X80893952Y-128364505D01*
X80969815Y-128274094D01*
X80975107Y-128270574D01*
X80976915Y-128267655D01*
X80987513Y-128253003D01*
X81020040Y-128214240D01*
X81020042Y-128214235D01*
X81024580Y-128208828D01*
X81027874Y-128205214D01*
X81034055Y-128189964D01*
X81093118Y-128087664D01*
X81098419Y-128082609D01*
X81099767Y-128079132D01*
X81108139Y-128061649D01*
X81128568Y-128026265D01*
X81130895Y-128021275D01*
X81131332Y-128021479D01*
X81137172Y-128009437D01*
X81140595Y-127993223D01*
X81181018Y-127882162D01*
X81185898Y-127875533D01*
X81186598Y-127871791D01*
X81192053Y-127851843D01*
X81202808Y-127822294D01*
X81202810Y-127822287D01*
X81203625Y-127817667D01*
X81209676Y-127795974D01*
X81210151Y-127780651D01*
X81230678Y-127664232D01*
X81230679Y-127664228D01*
X81234710Y-127656095D01*
X81234710Y-127652391D01*
X81236624Y-127630512D01*
X81240500Y-127608529D01*
X81240500Y-127595110D01*
X81242546Y-127573019D01*
X81240500Y-127559112D01*
X81240500Y-127440886D01*
X81243277Y-127431425D01*
X81242645Y-127428039D01*
X81240500Y-127404888D01*
X81240500Y-127391469D01*
X81236624Y-127369486D01*
X81234733Y-127347872D01*
X81230678Y-127335767D01*
X81210151Y-127219347D01*
X81211324Y-127208825D01*
X81210219Y-127205972D01*
X81203623Y-127182325D01*
X81202809Y-127177709D01*
X81202808Y-127177705D01*
X81192050Y-127148149D01*
X81186598Y-127128209D01*
X81186550Y-127127956D01*
X81181018Y-127117837D01*
X81140594Y-127006775D01*
X81139880Y-126995541D01*
X81138525Y-126993353D01*
X81131332Y-126978520D01*
X81130895Y-126978725D01*
X81128572Y-126973745D01*
X81128570Y-126973739D01*
X81125873Y-126969068D01*
X81108140Y-126938352D01*
X81099768Y-126920870D01*
X81099566Y-126920349D01*
X81093117Y-126912332D01*
X81034056Y-126810036D01*
X81031255Y-126798492D01*
X81024568Y-126791157D01*
X81020041Y-126785762D01*
X81020040Y-126785760D01*
X80987520Y-126747004D01*
X80976918Y-126732348D01*
X80976568Y-126731783D01*
X80969813Y-126725902D01*
X80950818Y-126703265D01*
X80893953Y-126635496D01*
X80888962Y-126624090D01*
X80860707Y-126602753D01*
X80858179Y-126600739D01*
X80830793Y-126577760D01*
X80830782Y-126577750D01*
X80824719Y-126571931D01*
X80821521Y-126568423D01*
X80815056Y-126564555D01*
X80714240Y-126479960D01*
X80649077Y-126442337D01*
X80642606Y-126438049D01*
X80639407Y-126435633D01*
X80633759Y-126433494D01*
X80526265Y-126371432D01*
X80526257Y-126371428D01*
X80445238Y-126341939D01*
X80438699Y-126339132D01*
X80436024Y-126337800D01*
X80431581Y-126336968D01*
X80322296Y-126297192D01*
X80322290Y-126297190D01*
X80225727Y-126280164D01*
X80219422Y-126278715D01*
X80217518Y-126278173D01*
X80214290Y-126278147D01*
X80104621Y-126258810D01*
X80041008Y-126227283D01*
X80004539Y-126166369D01*
X80000500Y-126134724D01*
X80000500Y-123000000D01*
X108444435Y-123000000D01*
X108464632Y-123179255D01*
X108521219Y-123340970D01*
X108524211Y-123349522D01*
X108524212Y-123349525D01*
X108620182Y-123502260D01*
X108620183Y-123502262D01*
X108747737Y-123629816D01*
X108747739Y-123629817D01*
X108900474Y-123725787D01*
X108900475Y-123725787D01*
X108900478Y-123725789D01*
X109003552Y-123761856D01*
X109051032Y-123791689D01*
X109362595Y-124103251D01*
X109396620Y-124165564D01*
X109399500Y-124192347D01*
X109399500Y-131573930D01*
X109380190Y-131640962D01*
X109374210Y-131650478D01*
X109314633Y-131820742D01*
X109314632Y-131820745D01*
X109294435Y-132000000D01*
X109314632Y-132179255D01*
X109314633Y-132179257D01*
X109374211Y-132349522D01*
X109374212Y-132349525D01*
X109470182Y-132502260D01*
X109470183Y-132502262D01*
X109597737Y-132629816D01*
X109597739Y-132629817D01*
X109750474Y-132725787D01*
X109750475Y-132725787D01*
X109750478Y-132725789D01*
X109920745Y-132785368D01*
X110100000Y-132805565D01*
X110279255Y-132785368D01*
X110449522Y-132725789D01*
X110602262Y-132629816D01*
X110729816Y-132502262D01*
X110825789Y-132349522D01*
X110885368Y-132179255D01*
X110905565Y-132000000D01*
X110885368Y-131820745D01*
X110825789Y-131650478D01*
X110819810Y-131640962D01*
X110800500Y-131573930D01*
X110800500Y-123873070D01*
X110800615Y-123869265D01*
X110804358Y-123807394D01*
X110793181Y-123746404D01*
X110792610Y-123742657D01*
X110785140Y-123681128D01*
X110781610Y-123671822D01*
X110775488Y-123649854D01*
X110773695Y-123640069D01*
X110748240Y-123583512D01*
X110746805Y-123580048D01*
X110724818Y-123522070D01*
X110719162Y-123513876D01*
X110707961Y-123494016D01*
X110703878Y-123484944D01*
X110684082Y-123459676D01*
X110665653Y-123436153D01*
X110663397Y-123433087D01*
X110628184Y-123382073D01*
X110628185Y-123382073D01*
X110591446Y-123349525D01*
X110581782Y-123340963D01*
X110579017Y-123338361D01*
X110041689Y-122801032D01*
X110011856Y-122753552D01*
X109975789Y-122650478D01*
X109975787Y-122650475D01*
X109975787Y-122650474D01*
X109879817Y-122497739D01*
X109879816Y-122497737D01*
X109752262Y-122370183D01*
X109752260Y-122370182D01*
X109599525Y-122274212D01*
X109599522Y-122274211D01*
X109599522Y-122274210D01*
X109429255Y-122214632D01*
X109250000Y-122194435D01*
X109249999Y-122194435D01*
X109223926Y-122197372D01*
X109070745Y-122214632D01*
X109070742Y-122214632D01*
X109070742Y-122214633D01*
X108900477Y-122274211D01*
X108900474Y-122274212D01*
X108747739Y-122370182D01*
X108747737Y-122370183D01*
X108620183Y-122497737D01*
X108620182Y-122497739D01*
X108524212Y-122650474D01*
X108524211Y-122650477D01*
X108524211Y-122650478D01*
X108464632Y-122820745D01*
X108444435Y-123000000D01*
X80000500Y-123000000D01*
X80000500Y-120941516D01*
X82299500Y-120941516D01*
X82314353Y-121035302D01*
X82371949Y-121148342D01*
X82461657Y-121238050D01*
X82500299Y-121257738D01*
X82574696Y-121295646D01*
X82668481Y-121310500D01*
X83731518Y-121310499D01*
X83825304Y-121295646D01*
X83938342Y-121238050D01*
X84028050Y-121148342D01*
X84085646Y-121035304D01*
X84100500Y-120941519D01*
X84100500Y-120741516D01*
X116299500Y-120741516D01*
X116314353Y-120835302D01*
X116371949Y-120948342D01*
X116461657Y-121038050D01*
X116500299Y-121057738D01*
X116574696Y-121095646D01*
X116668481Y-121110500D01*
X117731518Y-121110499D01*
X117825304Y-121095646D01*
X117938342Y-121038050D01*
X118028050Y-120948342D01*
X118085646Y-120835304D01*
X118100500Y-120741519D01*
X118100499Y-119678482D01*
X118085646Y-119584696D01*
X118047332Y-119509500D01*
X118028050Y-119471657D01*
X117938342Y-119381949D01*
X117862502Y-119343307D01*
X117825304Y-119324354D01*
X117731519Y-119309500D01*
X117731515Y-119309500D01*
X116668483Y-119309500D01*
X116574697Y-119324353D01*
X116461657Y-119381949D01*
X116371949Y-119471657D01*
X116345099Y-119524355D01*
X116314354Y-119584696D01*
X116300581Y-119671657D01*
X116299500Y-119678484D01*
X116299500Y-120741516D01*
X84100500Y-120741516D01*
X84100499Y-119878482D01*
X84085646Y-119784696D01*
X84031527Y-119678481D01*
X84028050Y-119671657D01*
X83938342Y-119581949D01*
X83862502Y-119543307D01*
X83825304Y-119524354D01*
X83731519Y-119509500D01*
X83731515Y-119509500D01*
X82668483Y-119509500D01*
X82574697Y-119524353D01*
X82461657Y-119581949D01*
X82371949Y-119671657D01*
X82314355Y-119784694D01*
X82314354Y-119784696D01*
X82299500Y-119878481D01*
X82299500Y-119878484D01*
X82299500Y-120941516D01*
X80000500Y-120941516D01*
X80000500Y-119197306D01*
X82875000Y-119197306D01*
X82914199Y-119305007D01*
X82987871Y-119392805D01*
X83087129Y-119450112D01*
X83171564Y-119465000D01*
X83228436Y-119465000D01*
X83312871Y-119450112D01*
X83412129Y-119392805D01*
X83485801Y-119305007D01*
X83525000Y-119197306D01*
X83525000Y-119082694D01*
X83493922Y-118997306D01*
X116875000Y-118997306D01*
X116914199Y-119105007D01*
X116987871Y-119192805D01*
X117087129Y-119250112D01*
X117171564Y-119265000D01*
X117228436Y-119265000D01*
X117312871Y-119250112D01*
X117412129Y-119192805D01*
X117485801Y-119105007D01*
X117525000Y-118997306D01*
X117525000Y-118882694D01*
X117485801Y-118774993D01*
X117412129Y-118687195D01*
X117312871Y-118629888D01*
X117228436Y-118615000D01*
X117171564Y-118615000D01*
X117087129Y-118629888D01*
X116987871Y-118687195D01*
X116914199Y-118774993D01*
X116875000Y-118882694D01*
X116875000Y-118997306D01*
X83493922Y-118997306D01*
X83485801Y-118974993D01*
X83412129Y-118887195D01*
X83312871Y-118829888D01*
X83228436Y-118815000D01*
X83171564Y-118815000D01*
X83087129Y-118829888D01*
X82987871Y-118887195D01*
X82914199Y-118974993D01*
X82875000Y-119082694D01*
X82875000Y-119197306D01*
X80000500Y-119197306D01*
X80000500Y-118640000D01*
X82449445Y-118640000D01*
X82700000Y-118640000D01*
X82700000Y-118390810D01*
X83700000Y-118390810D01*
X83700000Y-118640000D01*
X83950554Y-118640000D01*
X83932127Y-118608082D01*
X83932123Y-118608077D01*
X83805536Y-118467488D01*
X83767703Y-118440000D01*
X116449445Y-118440000D01*
X116700000Y-118440000D01*
X116700000Y-118190810D01*
X117700000Y-118190810D01*
X117700000Y-118440000D01*
X117950554Y-118440000D01*
X117932127Y-118408082D01*
X117932123Y-118408077D01*
X117805536Y-118267488D01*
X117700000Y-118190810D01*
X116700000Y-118190810D01*
X116594463Y-118267488D01*
X116467876Y-118408077D01*
X116467872Y-118408082D01*
X116449445Y-118440000D01*
X83767703Y-118440000D01*
X83700000Y-118390810D01*
X82700000Y-118390810D01*
X82594463Y-118467488D01*
X82467876Y-118608077D01*
X82467872Y-118608082D01*
X82449445Y-118640000D01*
X80000500Y-118640000D01*
X80000500Y-115603542D01*
X80000896Y-115596483D01*
X80003468Y-115573658D01*
X80003468Y-115573655D01*
X80017093Y-115470167D01*
X80023077Y-115445032D01*
X80037557Y-115403651D01*
X80038792Y-115400413D01*
X80067526Y-115331042D01*
X80077241Y-115312239D01*
X80103930Y-115269763D01*
X80107270Y-115264962D01*
X80153325Y-115204942D01*
X80158726Y-115198783D01*
X80198783Y-115158726D01*
X80204942Y-115153325D01*
X80264962Y-115107270D01*
X80269763Y-115103930D01*
X80312239Y-115077241D01*
X80331042Y-115067526D01*
X80400413Y-115038792D01*
X80403651Y-115037557D01*
X80445032Y-115023077D01*
X80470167Y-115017093D01*
X80573628Y-115003471D01*
X80596487Y-115000895D01*
X80603542Y-115000500D01*
X119396457Y-115000500D01*
X119403513Y-115000895D01*
G37*
%TD.AperFunction*%
M02*
